<svg width="141" height="64" viewBox="0 0 141 64" fill="none" xmlns="http://www.w3.org/2000/svg">
<path d="M70.7198 42.177C70.6747 42.4224 72.8511 43.0592 71.0759 43.0857C72.0789 43.0857 72.9614 43.1321 72.1139 43.5765C74.0346 43.5433 72.2494 42.9132 73.5181 42.5285C72.475 42.9597 71.6526 42.2964 70.7198 42.177Z" fill="#DFF7DA"/>
<path d="M75.7891 44.2747L76.3169 44.1209L74.9183 43.5754L75.7891 44.2747Z" fill="#DFF7DA"/>
<path d="M81.1571 43.5754C81.5273 43.646 81.8153 43.7382 81.8821 43.8792L78.4164 44.0474L81.5427 44.2752C83.4298 43.8955 82.5197 43.7273 81.1571 43.5754Z" fill="#DFF7DA"/>
<path d="M77.0185 43.2923C76.9835 43.5192 78.5204 43.4341 79.8169 43.576C78.9359 43.3963 78.1449 43.1883 78.0298 42.8762L77.0185 43.2923Z" fill="#DFF7DA"/>
<path d="M84.7752 44.274H85.2765L85.4137 43.5754C84.39 43.7082 84.8016 44.1273 84.7752 44.274Z" fill="#DFF7DA"/>
<path d="M95.9105 45.675L97.45 46.3748C97.7009 46.2783 97.4982 46.045 98.0098 45.852C97.5754 45.5464 96.5958 45.7474 95.9105 45.675Z" fill="#DFF7DA"/>
<path d="M52.5258 51.2747H53.9962C54.3153 51.2578 54.6301 51.3504 54.8834 51.5356C54.9858 51.6149 55.0682 51.7152 55.1242 51.8289C55.1802 51.9427 55.2085 52.067 55.2069 52.1926C55.2057 52.3834 55.1329 52.5675 55.0018 52.7118C54.8706 52.8562 54.6896 52.9513 54.4912 52.9801C54.6094 52.9896 54.7243 53.0213 54.8295 53.0733C54.9346 53.1253 55.0279 53.1965 55.1039 53.283C55.2477 53.4425 55.3261 53.6461 55.3245 53.8561C55.3278 53.9831 55.2998 54.1091 55.2427 54.224C55.1857 54.3388 55.1013 54.4395 54.9961 54.5178C54.742 54.6972 54.4298 54.7863 54.1138 54.7694H52.5454L52.5258 51.2747ZM53.2659 51.8152V52.7192H53.9325C54.0738 52.7273 54.2133 52.6858 54.3246 52.6027C54.3713 52.5593 54.4084 52.5075 54.4337 52.4502C54.459 52.393 54.4721 52.3316 54.4721 52.2695C54.4721 52.2074 54.459 52.146 54.4337 52.0888C54.4084 52.0316 54.3713 51.9797 54.3246 51.9363C54.214 51.8515 54.0744 51.8084 53.9325 51.8152H53.2659ZM53.2659 54.2196H54.0109C54.1552 54.2267 54.297 54.1818 54.4079 54.0938C54.4575 54.0489 54.4967 53.9946 54.5229 53.9344C54.549 53.8742 54.5616 53.8094 54.5599 53.7443C54.5624 53.6773 54.5497 53.6106 54.5227 53.5486C54.4956 53.4867 54.4548 53.4311 54.403 53.3855C54.2921 53.2975 54.1503 53.2526 54.006 53.2597H53.2659V54.2196Z" fill="#DFF7DA"/>
<path d="M62.2258 54.7715L61.9883 54.1183H60.5482L60.3107 54.7715H59.5238L60.8352 51.2727H61.721L63.0226 54.7715H62.2258ZM60.7412 53.5772H61.7953L61.2658 52.1217L60.7412 53.5772Z" fill="#DFF7DA"/>
<path d="M68.1471 53.3693V54.7715H67.2191V51.2753H68.9434C69.398 51.2542 69.8464 51.3628 70.1974 51.5791C70.3376 51.6734 70.4493 51.7888 70.525 51.9178C70.6007 52.0467 70.6386 52.1862 70.6363 52.3269C70.6401 52.5664 70.5301 52.799 70.3258 52.9838C70.1216 53.1686 69.8362 53.2935 69.5202 53.3365L70.7179 54.7715H69.5955L68.4731 53.3693H68.1471ZM68.1471 51.8081V52.813H68.9246C69.0231 52.819 69.1221 52.8101 69.2159 52.7868C69.3096 52.7635 69.3961 52.7263 69.4701 52.6775C69.5342 52.6281 69.584 52.5695 69.6164 52.5051C69.6487 52.4408 69.663 52.3722 69.6582 52.3036C69.6623 52.235 69.6477 52.1666 69.6153 52.1023C69.583 52.038 69.5336 51.9793 69.4701 51.9297C69.3188 51.8333 69.1231 51.7847 68.9246 51.7941L68.1471 51.8081Z" fill="#DFF7DA"/>
<path d="M75.3891 54.7715C75.2359 54.7745 75.0836 54.7455 74.9412 54.686C74.7988 54.6266 74.6691 54.538 74.5596 54.4253C74.4506 54.3156 74.3643 54.1836 74.3058 54.0375C74.2474 53.8913 74.2181 53.7341 74.2198 53.5756C74.2099 53.2756 74.306 52.9823 74.4897 52.7521C74.6514 52.5383 74.8863 52.399 75.1443 52.364C74.9609 52.1216 74.8496 51.8279 74.8245 51.5195C74.8259 51.3967 74.8515 51.2756 74.8997 51.1636C74.9479 51.0517 75.0175 50.9514 75.1043 50.8691C75.2062 50.7684 75.3265 50.6904 75.4579 50.64C75.5893 50.5895 75.7291 50.5675 75.8689 50.5754C76.1509 50.5585 76.4282 50.6561 76.6435 50.8481C76.7311 50.9263 76.8015 51.0236 76.8498 51.1332C76.8981 51.2428 76.9232 51.362 76.9233 51.4828C76.9257 51.5928 76.9053 51.7019 76.8633 51.8027H76.1387C76.1719 51.7308 76.189 51.6519 76.1887 51.572C76.1895 51.5291 76.1819 51.4865 76.1665 51.4468C76.151 51.4071 76.128 51.3712 76.0988 51.3412C76.0687 51.3097 76.0327 51.2851 75.9932 51.2689C75.9536 51.2527 75.9113 51.2451 75.8689 51.2467C75.8272 51.2455 75.7858 51.2533 75.7471 51.2695C75.7085 51.2857 75.6734 51.3101 75.644 51.3412C75.5861 51.4107 75.5558 51.5007 75.5591 51.5929C75.5757 51.7326 75.6313 51.864 75.719 51.9706L77.7179 54.7348H76.8383L76.4236 54.1369C76.3293 54.3285 76.1856 54.4885 76.0088 54.5984C75.8225 54.7178 75.6073 54.7779 75.3891 54.7715ZM75.0194 53.9585C75.0671 54.0126 75.1252 54.0555 75.1897 54.0844C75.2543 54.1133 75.3239 54.1276 75.3941 54.1264C75.4649 54.1262 75.5349 54.1112 75.6001 54.0824C75.6653 54.0536 75.7244 54.0115 75.7739 53.9585C75.8248 53.9038 75.8648 53.839 75.8914 53.7678C75.918 53.6966 75.9307 53.6206 75.9289 53.5442C75.9309 53.4694 75.9185 53.395 75.8925 53.3253C75.8664 53.2557 75.8273 53.1923 75.7774 53.1389C75.7275 53.0855 75.6678 53.0433 75.6019 53.0147C75.5361 52.9861 75.4654 52.9717 75.3941 52.9724C75.3243 52.9705 75.2549 52.984 75.1903 53.012C75.1258 53.04 75.0675 53.0819 75.0194 53.135C74.9684 53.1886 74.9283 53.2525 74.9017 53.3228C74.875 53.3932 74.8624 53.4685 74.8644 53.5442C74.8626 53.6206 74.8753 53.6966 74.9019 53.7678C74.9285 53.839 74.9684 53.9038 75.0194 53.9585Z" fill="#DFF7DA"/>
<path d="M32.9875 62.4671V63.8691H32.2328V60.3734H33.6123C33.9749 60.3504 34.3331 60.4592 34.612 60.6772C34.7257 60.7702 34.8163 60.8853 34.8776 61.0144C34.9389 61.1436 34.9693 61.2837 34.9668 61.4249C34.9645 61.6463 34.8895 61.8616 34.7519 62.0418C34.5844 62.243 34.3448 62.3808 34.0771 62.4297L35.0318 63.8691H34.1371L33.2424 62.4671H32.9875ZM32.9875 60.9062V61.925H33.6123C33.7706 61.9344 33.9266 61.8858 34.0471 61.7894C34.1407 61.6845 34.1919 61.5522 34.1919 61.4156C34.1919 61.279 34.1407 61.1467 34.0471 61.0417C33.9266 60.9454 33.7706 60.8967 33.6123 60.9062H32.9875Z" fill="#DFF7DA"/>
<path d="M40.6309 60.3704V60.9047H39.2654V61.834H40.4754V62.3683H39.2654V63.3301H40.6309V63.8691H38.5316V60.3843L40.6309 60.3704Z" fill="#DFF7DA"/>
<path d="M46.8941 60.8932C46.7592 60.8888 46.6268 60.9259 46.5185 60.9984C46.4723 61.0348 46.4356 61.0799 46.4111 61.1305C46.3865 61.1811 46.3746 61.236 46.3763 61.2912C46.37 61.3974 46.4081 61.5018 46.4829 61.584C46.5599 61.6572 46.6558 61.7122 46.7621 61.7441C46.8867 61.7843 47.0138 61.8179 47.1428 61.8447L47.559 61.9545C47.6907 61.9923 47.8169 62.0446 47.9345 62.11C48.0547 62.175 48.153 62.2683 48.2188 62.3799C48.2977 62.5215 48.3344 62.6791 48.3254 62.8374C48.3257 62.976 48.2922 63.113 48.2273 63.2387C48.1624 63.3643 48.0676 63.4756 47.9498 63.5647C47.6741 63.7746 47.3205 63.8824 46.96 63.8666C46.5987 63.8858 46.2408 63.7939 45.9449 63.6059C45.82 63.5201 45.7201 63.4082 45.6538 63.2799C45.5875 63.1516 45.5568 63.0108 45.5643 62.8694H46.3763C46.3757 62.9348 46.3907 62.9996 46.4202 63.0594C46.4497 63.1191 46.4932 63.1725 46.5475 63.2158C46.6019 63.2592 46.6659 63.2915 46.7353 63.3107C46.8047 63.3298 46.8779 63.3353 46.9499 63.3268C47.0993 63.3338 47.2461 63.2897 47.361 63.2033C47.4118 63.1629 47.4518 63.1128 47.4782 63.0566C47.5045 63.0003 47.5165 62.9395 47.5133 62.8785C47.5144 62.8142 47.4967 62.7507 47.462 62.6945C47.4272 62.6383 47.3767 62.5913 47.3153 62.5583C47.1591 62.4734 46.9872 62.4146 46.8078 62.3845C46.6149 62.3433 46.4271 62.2976 46.2342 62.2381C46.0385 62.1867 45.8627 62.0868 45.7267 61.9499C45.5886 61.793 45.5183 61.5964 45.5287 61.3964C45.5228 61.2544 45.5536 61.113 45.6188 60.9836C45.684 60.8542 45.7817 60.7402 45.9043 60.6508C46.1792 60.4582 46.5208 60.3594 46.8687 60.3717C47.2058 60.3584 47.5386 60.4434 47.8178 60.6142C47.9407 60.7031 48.0397 60.816 48.1074 60.9444C48.1751 61.0727 48.2097 61.2131 48.2086 61.3552H47.3712C47.364 61.2365 47.3057 61.1249 47.2087 61.0442C47.1262 60.9628 47.0151 60.9095 46.8941 60.8932Z" fill="#DFF7DA"/>
<path d="M51.8265 60.9129V60.3704H54.6255V60.9129H53.6151V63.8691H52.8572V60.9129H51.8265Z" fill="#DFF7DA"/>
<path d="M61.5346 63.8691L61.292 63.2113H59.852L59.6144 63.8691H58.8226L60.1341 60.3704H61.0199L62.3214 63.8691H61.5346ZM60.0499 62.6749H61.1188L60.5745 61.2334L60.0499 62.6749Z" fill="#DFF7DA"/>
<path d="M66.5253 62.5062V60.3704H67.3985V62.5062C67.3896 62.6033 67.4049 62.7009 67.4437 62.7931C67.4824 62.8854 67.5437 62.9706 67.624 63.0437C67.7101 63.1088 67.8121 63.1588 67.9235 63.1907C68.035 63.2226 68.1536 63.2357 68.2716 63.229C68.3897 63.2354 68.5081 63.2222 68.6195 63.1903C68.7309 63.1585 68.833 63.1085 68.9193 63.0437C69.0017 62.9716 69.0648 62.8866 69.1046 62.7942C69.1444 62.7017 69.16 62.6037 69.1505 62.5062V60.3704H70.0179V62.5062C70.0316 62.6947 69.9925 62.8832 69.9035 63.058C69.8144 63.2327 69.6777 63.3893 69.5033 63.5162C69.1542 63.7545 68.7068 63.88 68.2485 63.8684C67.7971 63.8799 67.3571 63.7541 67.0168 63.5162C66.8476 63.387 66.7158 63.2296 66.6309 63.055C66.5459 62.8805 66.5099 62.6931 66.5253 62.5062Z" fill="#DFF7DA"/>
<path d="M95.9105 60.9129V60.3704H98.7095V60.9129H97.7045V63.8691H96.9507V60.9129H95.9105Z" fill="#DFF7DA"/>
<path d="M74.9766 62.467V63.8691H74.2191V60.3731H75.5985C75.9623 60.3515 76.3212 60.4601 76.6018 60.6769C76.7152 60.7701 76.8055 60.8854 76.8661 61.0146C76.9268 61.1437 76.9564 61.2837 76.9529 61.4247C76.9529 61.6464 76.8774 61.8625 76.7372 62.0416C76.571 62.2448 76.3297 62.3831 76.0601 62.4296L77.0181 63.8691H76.1202L75.2223 62.467H74.9766ZM74.9766 60.9059V61.9248H75.5985C75.7574 61.9342 75.9139 61.8856 76.0349 61.7892C76.1316 61.6855 76.1849 61.5527 76.1849 61.4153C76.1849 61.2779 76.1316 61.1452 76.0349 61.0414C75.9139 60.9451 75.7574 60.8965 75.5985 60.9059H74.9766Z" fill="#DFF7DA"/>
<path d="M83.7821 63.8691L83.4971 63.2113H81.769L81.484 63.8691H80.516L82.0897 60.3704H83.1467L84.7145 63.8691H83.7821ZM82.0006 62.6749H83.2714L82.6301 61.2334L82.0006 62.6749Z" fill="#DFF7DA"/>
<path d="M90.8878 60.3704H91.712V63.8691H90.8878L89.0429 61.448V63.8691H88.2133V60.3704H89.0375L90.8824 62.7868L90.8878 60.3704Z" fill="#DFF7DA"/>
<path d="M16.2669 10.9228C16.5667 10.5672 16.8613 10.1548 17.1611 9.73733C17.9049 8.63483 19.0225 7.83689 20.3087 7.48999C20.7208 7.41717 21.1452 7.50182 21.4975 7.7271C22.0212 8.01838 22.6354 8.10299 23.2186 7.9642C23.9319 7.84564 24.4022 7.9642 24.5831 8.37655C24.5831 8.61366 24.4642 9.02602 24.5263 9.14457C24.5714 9.37072 24.568 9.60384 24.5164 9.8286C24.4647 10.0534 24.3659 10.2647 24.2265 10.4486C24.1076 10.5105 24.1696 10.629 24.1696 10.7476C24.1076 12.1084 24.4643 10.9229 23.8699 12.2939C23.5753 12.9485 23.5132 13.5413 23.2755 14.0722C20.4276 21.2369 23.3944 17.6803 25.7719 14.5464C26.0338 13.8925 26.4401 13.3058 26.9607 12.83C27.7876 11.6445 28.8007 10.5775 29.6328 9.33528C30.9688 7.55576 32.5708 5.99122 34.3827 4.69628C35.0339 4.27877 35.6283 3.62931 36.2227 3.74787C36.8099 3.79961 37.3681 4.02585 37.825 4.39732C38.2508 4.73682 38.6026 5.15955 38.8587 5.63955C38.9776 5.7014 39.0396 5.76325 39.0964 5.76325C39.9286 5.9385 39.9286 6.76836 39.9286 7.53638C39.855 7.68851 39.7962 7.8473 39.7528 8.01058C38.9776 9.72701 38.2023 11.3249 37.9697 12.9279C37.8508 13.7578 37.7319 14.6444 37.6751 15.4124C37.6182 16.1804 37.4942 17.0721 37.3184 17.9587C37.1996 18.7318 37.1996 19.505 36.5431 20.2678C36.5431 20.3297 36.4863 20.3864 36.5431 20.505C36.9618 20.8606 36.3674 21.2781 36.1865 21.6905C36.1297 21.8709 36.0108 22.108 36.1297 22.2832C36.2288 22.6275 36.2429 22.9906 36.1709 23.3415C36.0989 23.6925 35.9429 24.0208 35.7162 24.2986C35.6844 24.415 35.6636 24.5341 35.6542 24.6543C35.4784 25.1697 35.3596 25.6594 35.2407 26.1336C35.2976 26.1336 35.2976 26.0718 35.5353 25.9532C35.3596 26.7831 34.3465 27.4995 34.6463 28.2675C35.0598 28.2675 35.0029 28.6799 34.8841 29.2108C34.6685 30.421 34.3504 31.6108 33.933 32.7674C33.9899 32.8241 33.933 32.8859 33.9899 32.9426C34.2897 33.5354 33.5764 34.3653 33.7522 35.1333C33.8142 35.6075 33.4575 36.2002 33.7522 36.793C33.6784 37.2512 33.4484 37.6699 33.1009 37.9785C32.982 38.2156 32.6874 38.3909 32.4497 38.628C32.093 39.4578 32.031 39.5197 31.2609 39.5764C31.021 39.602 30.7829 39.6416 30.5476 39.6949C30.129 39.7516 29.8344 39.7516 29.6586 39.4578C29.5966 39.3393 29.4209 39.2826 29.1831 39.2207C28.4079 39.0455 28.1494 38.3342 28.5267 37.561C29.0357 35.5741 29.4139 33.5561 29.6586 31.52C29.8232 31.012 29.9613 30.4959 30.0721 29.9737C30.3099 29.2624 30.4856 28.4273 30.8423 27.6026C30.8423 27.8397 30.7234 28.1181 30.7234 28.4325C30.9043 28.3139 30.9043 28.3139 30.9611 28.3139C31.1165 27.89 31.2358 27.4538 31.3177 27.0099C31.4986 25.9429 32.031 24.8192 31.9121 23.8141C31.8844 23.7808 31.8692 23.7389 31.8692 23.6956C31.8692 23.6523 31.8844 23.6103 31.9121 23.577C32.5065 22.9842 31.9742 22.3915 32.429 21.7987C32.6047 21.6235 32.5479 21.3864 32.6047 21.2833C32.5219 20.5903 32.7067 19.8918 33.1216 19.3297V19.0153L33.0647 18.9586C32.6512 19.8452 32.2946 20.7318 31.938 21.6235H31.7726C32.6667 16.4123 32.9045 15.7577 28.8627 21.3864C28.8058 21.3245 28.7438 21.2678 28.7438 21.206C28.7119 21.2042 28.6799 21.2088 28.6497 21.2194C28.6196 21.23 28.5918 21.2465 28.5681 21.2678C28.5344 21.4478 28.4734 21.6216 28.3872 21.7833C28.2748 22.1188 28.0961 22.4285 27.8618 22.6941C27.6274 22.9597 27.3421 23.1757 27.0227 23.3296C26.945 23.3551 26.8761 23.4021 26.8239 23.465C26.7718 23.528 26.7386 23.6043 26.7281 23.6852C26.5009 23.8774 26.3236 24.1214 26.2112 24.3966C25.56 26.2315 21.6991 31.6798 20.5723 33.5148C20.0968 34.3446 19.3836 34.8188 18.5514 35.5765C18.5514 35.2209 18.4946 34.9838 18.6703 34.7467H18.5514C18.2963 35.1569 18.0185 35.5527 17.7193 35.9322C17.7193 35.8755 17.6624 35.8755 17.6004 35.8136C17.463 36.1406 17.2433 36.4267 16.9626 36.6443C16.682 36.8619 16.3498 37.0037 15.9981 37.0559C15.0157 37.4686 13.9209 37.5323 12.897 37.2363C12.3026 37.0559 11.5273 36.9992 11.0518 36.5868C10.6384 36.2879 10.5763 36.3497 10.995 35.6384C11.54 34.6983 12.1352 33.7881 12.7782 32.9117C13.4294 31.9633 13.8429 31.1953 13.724 30.3654C15.0316 23.7935 18.7116 15.4433 13.8429 23.0203C13.2675 24.0509 12.5923 25.0228 11.8271 25.9223C9.9251 30.0097 5.23207 36.0508 4.51881 40.432C4.44748 40.885 4.30806 41.3246 4.1053 41.7361C3.74867 42.2515 3.45408 42.3289 3.15431 42.0918C2.97858 42.0351 2.91655 42.0351 2.8597 41.9732C2.55992 41.2619 1.96555 41.1433 1.19544 41.0248C0.790557 40.9256 0.408194 40.7506 0.0686638 40.5093C0.00664119 40.4475 0.0686878 40.1537 0.125542 40.0351C1.09631 38.1902 1.79275 36.2143 2.19296 34.1694C2.30311 33.4109 2.46193 32.6602 2.66846 31.922C2.84936 31.0303 4.33273 27.5408 4.57049 26.649L5.28375 23.809C5.75926 21.974 6.17274 20.1338 6.71027 18.2989C6.82264 17.911 6.90215 17.5144 6.94801 17.1133C7.087 15.6922 7.44621 14.3011 8.01276 12.9898C8.19366 12.5774 8.2505 12.1032 8.48826 11.629C8.62235 11.1858 8.78109 10.7505 8.96376 10.3249C9.14466 9.91258 9.38241 9.73217 9.67702 9.85072C9.97679 10.1497 10.3903 10.3662 10.7107 10.6806C10.8916 10.9177 10.8296 11.2733 10.8916 11.629C10.6979 12.8308 10.4199 14.0175 10.0595 15.1804C8.69499 21.7575 13.8015 14.2372 14.5148 13.1702C15.0368 12.4022 15.7501 11.6909 16.2669 10.9228ZM13.0004 34.5508C13.0624 34.4323 13.1244 34.3137 13.3002 34.0354V33.7416C13.2097 33.9011 13.0885 34.0412 12.9435 34.1539C12.9569 34.2939 12.9374 34.4351 12.8867 34.5663L13.0004 34.5508ZM21.1409 23.0049C21.4355 22.5925 21.7301 22.0564 22.0299 21.5255C22.3906 20.6013 22.9832 19.7849 23.751 19.1545C23.9549 18.9005 24.079 18.5921 24.1076 18.2679C23.2186 19.0359 21.3166 21.9379 20.7222 23.4224C20.8958 23.3166 21.044 23.174 21.1564 23.0049H21.1409ZM26.9607 15.0103C26.9746 14.8273 27.06 14.657 27.1984 14.5361C28.0874 13.6495 28.382 12.5826 29.0953 11.5723C27.9156 12.8444 26.8983 14.2571 26.0665 15.7783C26.2633 15.7203 26.4458 15.622 26.6024 15.4898C26.759 15.3576 26.8863 15.1943 26.9762 15.0103H26.9607Z" fill="#DFF7DA"/>
<path d="M39.8969 24.2848C39.2679 23.1067 38.8838 21.8097 38.7685 20.4744C38.635 19.4394 38.8661 18.3897 39.4207 17.5113C39.4644 17.4324 39.5246 17.3642 39.5971 17.3115C39.6695 17.2588 39.7524 17.2228 39.8399 17.2061C40.3973 16.7492 40.9951 16.3457 41.6257 16.0009C42.1968 15.6548 42.877 15.5455 43.5253 15.6956C44.0015 15.6956 45.311 16.9061 45.5957 17.1482C45.9472 17.4826 46.3264 17.7855 46.7293 18.0534C47.2689 18.5471 47.6767 19.1718 47.9146 19.8691C48.0527 20.326 48.2257 20.7712 48.4322 21.2007C48.5846 21.7773 48.7039 22.3625 48.7893 22.9532C48.8139 23.4411 48.8727 23.9265 48.9653 24.4058C49.0275 24.4637 49.0274 24.4637 49.0274 24.5847C48.8463 23.6164 49.0844 25.011 49.0274 25.19C48.9653 25.9163 49.1465 26.5794 48.9653 27.2478C48.7894 27.6109 49.1465 28.032 49.6227 28.032C52.5368 27.853 53.6652 28.2741 56.5172 27.7899C56.8174 27.6688 57.1125 27.4899 57.4696 27.3057C57.5887 27.2478 57.7698 27.1268 57.8889 27.0636C57.929 27.1453 57.9498 27.2354 57.9498 27.3267C57.9498 27.4181 57.929 27.5082 57.8889 27.5899C57.7077 27.8899 58.3029 28.0109 58.0648 28.253C56.2791 30.1898 50.8184 30.1266 48.6703 30.1266H48.4891C48.3131 30.1266 48.132 30.1898 48.132 30.3108C48.132 30.4319 48.075 30.4898 48.0129 30.6108C47.7411 31.6566 47.3629 32.6708 46.8846 33.637C46.5926 34.2907 46.2128 34.9 45.7562 35.4475C45.5479 35.8498 45.2649 36.2073 44.9228 36.5001C44.8038 36.558 44.6847 36.679 44.5035 36.8001C44.3444 36.872 44.2172 37.0014 44.1464 37.1632C43.7164 37.7044 43.1382 38.1037 42.4849 38.3105C42.2721 38.3483 42.0693 38.4307 41.8896 38.5526C41.0912 38.7542 40.2592 38.7757 39.4517 38.6158C38.3803 38.4947 37.666 37.7053 37.0707 36.679C36.8947 36.1948 36.7136 35.5896 36.5531 35.0475C36.4129 33.9444 36.3921 32.829 36.491 31.7213C36.6335 30.5576 36.9843 29.4303 37.5262 28.3951C38.0713 27.096 38.8136 25.8919 39.726 24.8268C39.902 24.7689 39.902 24.6479 39.9642 24.4637C39.9677 24.4306 39.9634 24.3971 39.9517 24.366C39.94 24.3349 39.9212 24.307 39.8969 24.2848ZM46.9777 21.8638C46.8712 21.2112 46.7313 20.5648 46.5585 19.927C46.4284 19.3711 46.1383 18.8672 45.7251 18.4797C45.5131 18.1924 45.2519 17.9463 44.9539 17.7534C44.6231 17.4551 44.2642 17.1907 43.8824 16.964C43.1681 16.364 41.8586 17.6324 41.4445 18.0534C39.8399 20.3533 41.3876 23.4953 42.8731 25.1321C44.5967 28.5741 47.749 27.3688 47.014 23.3164C47.1505 22.8401 47.1378 22.3324 46.9777 21.8638ZM41.6826 33.6581C41.6353 33.9767 41.6162 34.2991 41.6257 34.6212C41.5014 34.7423 41.6257 34.8054 41.6826 34.9265C41.8 35.2449 42.0336 35.505 42.3348 35.6527C42.3969 35.6527 42.3969 35.6528 42.4538 35.5896C42.5108 35.5264 42.635 35.4685 42.6919 35.4107C43.6788 34.2651 44.4633 32.9546 45.0108 31.5371C45.2517 31.0739 45.4509 30.5895 45.606 30.0898C44.2396 29.4846 43.5874 30.0266 42.811 31.0582C42.2912 31.8527 41.9095 32.7321 41.6826 33.6581Z" fill="#DFF7DA"/>
<path d="M73.6518 27.8778C73.294 28.3572 72.9361 28.894 72.5782 29.3735C72.166 29.9585 71.8067 30.5795 71.5045 31.2288C71.5045 31.2862 71.5046 31.4112 71.4475 31.4112C71.0789 31.9892 70.6807 32.5476 70.2546 33.0842C69.6011 33.8034 69.0046 34.4601 68.3511 35.1219C67.7303 35.692 67.0504 36.1935 66.3231 36.6177C65.9082 36.8574 63.7609 37.9935 63.2837 37.9935C62.8065 37.9935 60.7786 37.8164 60.2443 37.9935C59.4093 38.176 57.6199 37.3942 56.8471 37.0971C56.0221 36.7541 55.2418 36.3113 54.5234 35.7786C53.3927 34.8822 52.7963 33.6262 52.6148 31.8855C52.4956 30.871 52.4956 29.846 52.6148 28.8315C52.6795 28.2242 52.7992 27.6241 52.9726 27.0387C53.1542 26.6165 53.2735 26.1996 53.4498 25.7775C53.9205 24.5524 54.4985 23.3716 55.177 22.2492C55.3585 22.0095 55.4778 21.7697 55.6541 21.53C56.0758 20.834 56.6005 20.2067 57.2101 19.6694C57.9259 19.0753 58.5794 18.4134 59.3574 17.8766C59.7173 17.6031 60.1561 17.4549 60.6074 17.4545C60.7856 17.4429 60.9607 17.4024 61.126 17.3346C61.544 17.0988 62.0231 16.9953 62.5005 17.0376C62.5576 17.0949 62.5576 17.0949 62.5576 17.0376C63.2634 16.992 63.9617 17.2049 64.5233 17.6369C64.5856 17.6369 64.6426 17.6942 64.7048 17.6942C64.7366 17.6983 64.7689 17.6952 64.7994 17.6853C64.8299 17.6754 64.8578 17.6589 64.8812 17.6369C65.0627 17.517 65.182 17.4545 65.3584 17.5743C65.4561 17.651 65.5303 17.7537 65.5725 17.8708C65.6147 17.9879 65.6232 18.1145 65.5969 18.2362C65.547 18.3617 65.5266 18.4971 65.5374 18.6318C65.5482 18.7666 65.5899 18.8969 65.6592 19.0128C65.7163 19.0753 65.6592 19.1952 65.7163 19.2525L65.3584 19.7737C65.4106 20.1388 65.4904 20.4994 65.5969 20.8525C65.7143 21.4041 65.7734 21.9666 65.7733 22.5306C65.7829 22.8306 65.7638 23.1307 65.7163 23.427C65.4695 24.4763 65.1221 25.4991 64.6789 26.481C64.6253 26.66 64.5248 26.8212 64.3879 26.9477C64.2511 27.0742 64.0829 27.1615 63.9009 27.2002C63.7816 27.2002 63.6623 27.2628 63.543 27.2628C63.4148 27.2681 63.2891 27.2254 63.1904 27.1429C62.8691 26.8673 62.5068 26.644 62.1167 26.481C62.0545 26.4237 61.9974 26.4237 61.9352 26.3612C61.8342 26.3027 61.7557 26.2118 61.7124 26.1031C61.6691 25.9944 61.6636 25.8741 61.6966 25.7618C61.7588 25.4648 61.8159 25.1677 61.8781 24.928C62.1924 23.7496 62.5699 22.5892 63.0088 21.4518C63.0081 21.3296 63.0274 21.2081 63.0659 21.0922C62.9518 21.2121 62.8895 21.2121 62.8325 21.2746C62.4244 21.9987 61.9448 22.6796 61.401 23.3072C60.9159 23.9841 60.4973 24.7067 60.1509 25.4648C59.6738 26.5071 59.1966 27.44 58.7195 28.4563C58.2632 29.3969 57.9035 30.3817 57.6458 31.3956C57.5515 31.7058 57.4923 32.0258 57.4695 32.3493C57.41 32.778 57.4711 33.2149 57.6458 33.6106C57.8273 33.965 58.0037 34.3871 58.1645 34.804C58.3034 35.0566 58.463 35.2972 58.6416 35.5232C58.9425 35.8828 60.431 35.2835 60.846 35.2262C62.1582 35.0438 64.959 33.8503 66.0897 32.8288C66.987 32.0523 68.683 30.8536 69.4299 29.9572L70.322 28.8784C70.8407 28.1592 72.5263 26.9605 73.0657 26.184C73.3614 25.7618 74.3157 25.225 74.6217 24.8081C74.7981 24.5684 74.6217 25.6472 74.9174 25.4648C74.6138 26.3263 74.1875 27.1391 73.6518 27.8778Z" fill="#DFF7DA"/>
<path d="M82.852 36.3798C83.1498 36.9631 83.4972 37.52 83.8904 38.0444C83.9723 38.2529 84.1149 38.4323 84.2999 38.5594C84.485 38.6865 84.704 38.7556 84.9289 38.7578C85.5683 38.9097 86.2404 38.8461 86.8396 38.5769C87.4367 38.4011 89.5811 36.6744 90.2405 36.3798C90.4794 36.2609 92.9249 33.6502 93.2209 33.4693C94.1336 32.391 94.9371 31.2256 95.6197 29.9901C96.2168 29.0389 96.6945 27.9739 97.2916 27.0227C97.411 26.7849 97.5305 26.5471 97.6499 26.2473C97.7693 25.9474 97.7693 25.7768 97.8264 25.5339C98.1276 26.3662 98.9012 25.7148 98.6624 26.3093C98.5593 26.554 98.4996 26.8146 98.4858 27.0796C98.4235 27.6741 97.5305 28.8631 97.3487 29.2767C97.0922 30.1053 96.7439 30.9028 96.3103 31.6547V31.7736C95.952 32.487 95.4172 33.2573 95.0589 34.0276C94.6384 34.5032 91.8346 37.5946 91.3569 38.0082C91.0603 38.2686 90.7167 38.4703 90.3444 38.6027C89.4513 39.0783 87.1252 40.9808 86.2269 41.2186C85.6215 41.3745 85.0026 41.4732 84.3785 41.5132C83.9077 41.5438 83.4358 41.4748 82.9938 41.3109C82.5517 41.147 82.1495 40.8917 81.8135 40.562C81.5176 40.2053 81.1593 39.7917 80.8581 39.3782C80.2039 38.246 79.3679 37.0001 78.7812 35.6922C78.262 35.0408 78.0647 34.5032 77.5299 35.2786C77.4105 35.4544 77.4105 35.7956 77.291 35.9921C77.0685 36.3334 76.869 36.6892 76.6939 37.057C76.5699 37.4548 76.3954 37.8353 76.1747 38.1892C76.0971 38.3011 75.9887 38.3884 75.8626 38.4407C75.7364 38.4929 75.5978 38.5079 75.4634 38.4838C75.3009 38.4679 75.1369 38.4864 74.982 38.5381C74.8272 38.5898 74.6851 38.6734 74.5651 38.7837C73.3138 39.3006 72.8361 39.3006 71.969 38.5459C70.8319 37.8325 70.4113 36.5866 70.1777 35.2786C70.1263 35.1672 70.1065 35.0438 70.1205 34.9219C70.2186 33.9925 70.1977 33.0545 70.0582 32.1303C69.9881 30.9415 70.009 29.749 70.1205 28.5633C70.2079 28.0499 70.2669 27.5322 70.2971 27.0124C70.4362 25.3593 70.7566 23.7263 71.2525 22.1426C71.5484 21.1914 71.8496 20.1781 72.2078 19.2889C72.7271 17.6243 73.4592 15.9648 74.1757 14.3002C74.5911 13.5868 74.8299 12.8165 75.2505 12.16C76.3029 9.99789 77.4782 7.89733 78.7708 5.86851C79.5713 4.6533 80.4895 3.51916 81.5124 2.48239C81.9277 2.12569 82.3483 1.70695 82.826 1.35025C83.2673 1.06109 83.7883 0.916494 84.3162 0.936672C84.3785 0.936672 84.4979 1.11244 84.6173 1.17447C84.9133 1.82585 85.6558 2.24459 86.2269 2.72537C87.3144 3.56487 88.2427 4.59074 88.9684 5.75478C89.3605 6.33534 89.5685 7.01968 89.5655 7.71925V8.23621C89.5246 8.36937 89.4469 8.4884 89.3413 8.57979C89.2357 8.67117 89.1066 8.73125 88.9684 8.75318C88.8431 8.65446 88.7029 8.57596 88.5531 8.52055C88.4336 8.33961 88.1948 8.22071 88.0754 8.04494C87.4783 7.56933 87.0006 7.62619 86.3463 8.28274C85.8271 8.75318 85.2715 9.40972 84.6744 9.9422C84.5927 10.1606 84.4713 10.3621 84.3162 10.5367C83.7191 11.4879 83.0648 12.3202 82.4677 13.1525C82.4339 13.3006 82.3722 13.4409 82.286 13.5661C82.0539 14.209 81.7545 14.8259 81.3929 15.4065C80.9776 16.2388 80.4999 17.0711 80.0793 18.0224C79.8404 18.4359 79.6639 18.7926 79.4251 19.2682C78.9474 20.3952 78.3503 21.5842 77.8674 22.7733C77.1993 24.1938 76.6404 25.6627 76.1955 27.1675C76.1384 27.5242 76.0189 27.762 75.9618 28.0618C75.8293 28.8218 75.656 29.5742 75.4426 30.3158C75.2038 32.2182 75.7438 32.1562 76.1591 31.5048C77.0522 30.14 77.7168 28.5322 78.7241 27.1675C79.7276 25.7181 80.8663 24.3662 82.125 23.13C83.4387 22.096 84.6329 21.7652 86.0037 22.003C86.1606 22.0107 86.3119 22.0636 86.4391 22.1554C86.5663 22.2472 86.664 22.3739 86.7202 22.52C86.7757 22.6719 86.8564 22.8134 86.959 22.9387C87.4153 23.5788 87.6454 24.3515 87.6133 25.1358C87.6256 26.6051 87.4048 28.0672 86.959 29.468C86.8967 29.7058 86.8967 29.8247 86.8396 30.0625C86.5689 30.8279 86.1857 31.5492 85.7025 32.2027C85.3442 32.4974 85.1106 32.8541 84.8094 33.0919C84.4607 33.568 83.9862 33.9384 83.4387 34.162C83.1694 34.2328 82.9084 34.3316 82.6599 34.4567C82.4833 34.4567 82.4833 34.6945 82.3016 34.7565C82.3519 35.3337 82.5406 35.8904 82.852 36.3798ZM70.2659 30.8586V32.1045C70.3878 31.6981 70.3878 31.265 70.2659 30.8586ZM81.1229 27.1726C80.9457 27.7157 80.7053 28.2362 80.4064 28.7235C80.1676 29.318 79.8093 29.7575 79.6328 30.2744C78.9785 31.2205 80.827 30.6311 81.1904 30.2744C82.6183 29.2043 83.636 27.5397 84.4096 25.6993C85.365 22.5975 84.2331 22.9077 82.7377 24.8101C82.0736 25.5046 81.5281 26.3027 81.1229 27.1726Z" fill="#DFF7DA"/>
<path d="M100.569 32.294C99.4963 32.812 98.1668 32.7705 97.4859 32.9467C96.6616 32.9006 95.8505 32.7257 95.0842 32.4287C93.5455 31.5326 93.4758 31.1182 93.1756 29.155C93.0256 28.31 93.1317 27.4412 93.4812 26.6531C93.7921 25.2856 97.116 20.3441 97.6735 19.0957C97.9826 18.3911 98.3539 17.7135 98.7833 17.0704C98.9507 16.7474 99.2349 16.4949 99.5821 16.3607C100.011 16.1794 100.445 16.1794 100.751 15.8842C101.678 15.4076 100.997 14.9881 101.614 14.9311C101.879 14.9201 102.142 14.9741 102.379 15.0883C102.617 15.2025 102.82 15.3729 102.97 15.5838C103.217 15.6459 103.217 15.9412 103.463 16.1794C103.646 16.2986 103.587 16.5369 103.587 16.7751C103.217 18.2617 101.861 21.0589 101.491 22.473C101.185 22.8874 101.062 24.5449 100.954 24.9127C100.862 25.5094 100.681 26.0903 100.418 26.6376C100.295 27.1141 99.9895 28.0103 100.295 28.2433C100.601 28.4764 100.665 29.5539 101.035 29.4347C102.515 28.6629 104.487 28.6008 105.286 27.6528C105.779 26.995 106.085 27.2954 106.578 26.6997C106.882 26.3824 107.132 26.0205 107.318 25.6275C107.688 24.8557 107.752 25.1095 108.058 24.4361C108.457 23.6804 108.931 22.964 109.473 22.2969C109.656 21.7975 109.929 21.3329 110.277 20.9242C110.894 20.7481 110.813 20.8051 111.076 20.8672C111.998 20.8051 111.199 20.8672 111.752 21.1625C111.875 21.4007 111.752 21.639 111.939 21.7582C111.505 22.8874 111.446 24.0787 110.894 25.3841C110.706 25.7985 110.83 25.3841 110.46 25.9021C110.446 26.3884 110.298 26.8624 110.031 27.2747C109.784 27.7927 109.843 28.4609 109.495 28.9375C109.001 30.9628 108.755 32.0454 108.755 32.2733C108.573 33.0451 110.728 33.5838 112.883 32.9259C114.298 32.3303 116.823 30.0097 117.997 28.1656C118.426 27.4508 118.796 26.736 119.477 25.7829C120.088 24.7159 120.581 26.4977 120.335 26.9173C120.188 27.1434 120.064 27.3828 119.965 27.6321C119.477 27.9895 118.893 29.8905 118.491 30.2221C118.367 30.3412 118.426 30.5225 118.121 30.6416C117.039 31.9659 115.821 33.1807 114.486 34.2675C113.95 34.3867 113.869 34.568 113.317 34.7855C113 35.1068 112.623 35.3685 112.207 35.5573C111.947 35.639 111.713 35.7834 111.527 35.9769C111.39 35.929 111.242 35.9201 111.1 35.9513C110.959 35.9825 110.829 36.0526 110.728 36.153C109.559 36.8108 104.568 37.0439 104.198 35.0238C103.892 33.1798 103.581 32.1645 104.139 30.1444V29.9061C103.217 30.8126 101.614 31.6413 100.569 32.294Z" fill="#DFF7DA"/>
<path d="M133.703 28.1615C133.764 29.6491 134.214 29.1152 136.406 28.7576C137.479 28.5864 138.468 28.064 139.222 27.27C139.733 26.7516 140.397 27.3892 140.693 27.6846C140.47 28.2415 140.172 28.7646 139.809 29.2396C137.346 30.7273 136.054 30.7273 134.235 30.9657C132.763 31.3234 132.651 32.0957 132.119 33.2879L131.884 33.7647C131.674 34.3993 131.379 35.0012 131.005 35.553C130.902 35.6861 130.784 35.8062 130.653 35.9107L130.065 36.626C129.816 37.0861 129.477 37.4899 129.069 37.813L128.655 38.2898L128.067 38.8082C127.901 38.8618 127.722 38.8618 127.556 38.8082C127.374 38.6675 127.177 38.5476 126.969 38.4505C126.92 38.2823 126.9 38.1072 126.907 37.9322C126.795 37.4138 126.616 36.9214 126.09 36.8644C125.869 36.7231 125.671 36.5483 125.502 36.3461C125.329 36.0684 125.085 35.8429 124.797 35.693C124.286 35.3353 124.148 34.3816 124.618 33.6196C124.798 33.1787 125.106 32.8042 125.502 32.5466C125.856 32.25 126.253 32.0089 126.677 31.8313C127.377 31.3545 128.026 31.3545 128.788 30.9968C129.249 30.6916 129.584 30.2248 129.728 29.6854C130.196 27.9052 130.55 26.0958 130.785 24.2688V22.2058C130.795 22.0832 130.774 21.9602 130.724 21.8481C130.668 21.5527 130.372 21.4335 130.213 21.6719C130.154 21.699 130.102 21.7398 130.061 21.7911C130.02 21.8425 129.992 21.9028 129.978 21.9674C129.551 22.6096 129.178 23.2876 128.864 23.9941C127.98 25.7201 127.158 27.5654 126.279 29.2345C125.635 30.4837 125.047 31.6136 124.516 32.925C123.637 35.071 121.639 37.2169 120.878 39.539C120.772 39.9516 120.548 40.3231 120.234 40.6068C119.938 40.726 119.82 41.2029 119.82 41.5606C119.825 41.9835 119.766 42.4046 119.646 42.8097C119.556 43.0236 119.437 43.2241 119.294 43.4058C119.042 43.7272 118.825 44.0747 118.645 44.4425C118.025 45.8998 117.63 47.4453 117.475 49.0246C117.452 49.7451 117.374 50.4626 117.24 51.1705C117.234 51.4059 117.165 51.6351 117.041 51.834C116.916 52.0329 116.742 52.1941 116.535 52.3005C116.198 52.5005 115.947 52.8201 115.829 53.1973C115.773 53.2543 115.594 53.4927 115.538 53.4927C115.359 53.4927 115.303 53.9074 115.186 54.0888H115.124C114.184 54.265 113.591 53.5705 113.244 52.4197C112.927 51.2556 112.756 50.0558 112.733 48.8484C112.636 46.0218 112.775 43.192 113.147 40.3891C113.259 39.2591 113.494 38.0669 113.658 36.994C113.904 35.1643 114.277 33.3544 114.772 31.5773C115.422 28.9546 116.128 26.394 116.887 23.8956C117.061 23.2995 117.296 22.7656 117.475 22.0503C118.18 20.262 118.768 18.3545 119.468 16.5092C119.811 15.5563 120.204 14.622 120.643 13.7102C120.761 13.5949 120.918 13.5305 121.082 13.5305C121.246 13.5305 121.404 13.5949 121.522 13.7102L122.932 14.6018L122.993 14.664C123.931 15.8469 124.484 17.2956 124.577 18.8107C124.676 19.7924 124.602 20.7841 124.358 21.7393C124.005 23.1699 123.591 24.7197 123.065 26.2074C122.712 27.1611 122.36 28.3533 122.007 29.4211C121.067 32.7592 122.947 32.3393 123.356 31.3285C123.535 30.8517 124.414 29.6595 124.587 29.0634L126.529 25.0152C126.772 24.3241 127.128 23.6794 127.582 23.1077C127.996 22.636 128.404 22.0399 128.874 21.5527C129.215 21.1845 129.673 20.9512 130.167 20.8944H131.189C131.7 20.7752 132.211 21.252 132.661 21.6719C132.829 21.8097 132.967 21.9812 133.068 22.1755C133.168 22.3699 133.228 22.5831 133.243 22.8019C133.329 23.2749 133.389 23.7526 133.422 24.2325L133.657 25.9586L133.703 28.1615ZM126.836 32.868C126.483 33.0442 126.248 33.4641 126.248 34.1794C126.309 34.4749 126.483 34.6977 126.662 34.6977C126.78 34.5785 126.953 34.5785 127.071 34.4593C127.376 34.2845 127.637 34.0395 127.832 33.744C128.481 32.8525 128.716 31.8987 128.537 32.2564C127.893 32.5674 127.362 32.4482 126.836 32.868Z" fill="#DFF7DA"/>
</svg>
