<svg width="147" height="69" viewBox="0 0 147 69" fill="none" xmlns="http://www.w3.org/2000/svg">
<path d="M39.9147 33.2724C39.912 33.3738 39.8829 33.4728 39.8302 33.5599C39.7775 33.647 39.703 33.7194 39.6137 33.7701C39.4391 33.9025 39.2516 34.0176 39.0539 34.1137L38.6566 34.321C38.5343 34.3893 38.3927 34.4164 38.2533 34.398C37.8525 34.3711 37.4502 34.3711 37.0494 34.398C36.6481 34.4147 36.2507 34.3159 35.9056 34.1137C35.5332 33.9336 35.1984 33.6864 34.9184 33.385C34.6355 33.077 34.4002 32.7296 34.2201 32.3542C33.9124 31.7693 33.6528 31.1611 33.4436 30.5355C33.231 29.9163 33.0561 29.2853 32.9199 28.6457C32.7634 27.8755 32.5768 27.1291 32.3661 26.3945C32.1554 25.6599 31.9327 24.9253 31.728 24.1729C31.5233 23.4205 31.3066 22.5675 31.126 21.7558C30.9454 20.9442 30.7889 20.1326 30.6204 19.3151C30.6266 19.2858 30.6266 19.2555 30.6204 19.2262C30.6167 19.1967 30.6167 19.1669 30.6204 19.1374C30.5965 18.9911 30.5623 18.8465 30.5181 18.7049C30.4917 18.6166 30.4418 18.5368 30.3736 18.4739C30.3047 18.4162 30.2172 18.3847 30.1268 18.385C29.9804 18.3777 29.8337 18.3777 29.6873 18.385C28.062 18.385 26.4307 18.308 24.8054 18.154C24.7097 18.1388 24.6122 18.1388 24.5165 18.154H24.1312C23.9669 18.1647 23.802 18.1647 23.6376 18.154C23.5536 18.1445 23.4686 18.1568 23.3908 18.1895C23.3113 18.2472 23.2524 18.328 23.2223 18.4205C23.1681 18.539 23.0898 18.7404 22.9875 19.013C22.3855 20.3933 21.8377 21.7736 21.2598 23.1599C20.682 24.5461 20.1041 25.9087 19.5322 27.3068C19.3275 27.7985 19.1409 28.302 18.9724 28.7997C18.8038 29.2973 18.6353 29.8127 18.4427 30.3222C18.362 30.5839 18.2445 30.8331 18.0935 31.0627C17.9258 31.2902 17.7227 31.4901 17.4916 31.6551C17.3889 31.7343 17.2802 31.8056 17.1665 31.8684C17.106 31.8972 17.0387 31.9091 16.9718 31.9028C16.905 31.8965 16.8411 31.8724 16.7873 31.8329C16.7248 31.8006 16.6704 31.7552 16.6277 31.6999C16.5851 31.6446 16.5553 31.5808 16.5405 31.5129C16.5135 31.382 16.5135 31.247 16.5405 31.116C16.7331 30.3814 16.9197 29.6587 17.1003 28.93C17.2809 28.2013 17.4916 27.4845 17.7384 26.7736C18.3403 24.9134 19.0105 23.0848 19.7489 21.2878C20.4873 19.4908 21.1836 17.6642 21.8377 15.808C22.2049 14.7535 22.5962 13.7227 23.0417 12.7274L24.3239 9.70018C24.7573 8.69307 25.1827 7.69583 25.6 6.70847L26.8461 3.74639L27.5203 1.96914C27.5822 1.84485 27.6346 1.71612 27.6768 1.58406C27.7203 1.45282 27.8128 1.34273 27.9356 1.27601C28.1667 1.14777 28.388 1.00323 28.5978 0.843542L29.1998 0.381458C29.3874 0.255863 29.5895 0.152472 29.8017 0.0734078C30.0999 0.0082453 30.4061 -0.0137087 30.7107 0.00824158C30.8451 0.0139287 30.9726 0.0686365 31.0683 0.161715C31.1639 0.254794 31.221 0.379578 31.2284 0.51179C31.4872 1.25823 31.7822 2.16464 32.1133 3.21914C32.4082 4.11961 32.7453 5.23927 33.1246 6.56629C33.5038 7.8933 33.9493 9.45729 34.4489 11.2464C34.6897 12.4549 34.9405 13.6516 35.2013 14.8364C35.4602 16.0213 35.7672 17.2061 36.1103 18.3909C36.321 19.1077 36.5016 19.8305 36.6581 20.5651C36.8146 21.2997 36.9771 22.0284 37.1517 22.763C37.6533 24.6034 38.1108 26.274 38.5242 27.7748L39.0358 29.6765C39.1984 30.2985 39.3429 30.8613 39.4753 31.3767C39.6077 31.8921 39.704 32.3246 39.7763 32.68C39.833 32.8749 39.8792 33.0727 39.9147 33.2724ZM28.6459 5.72506C28.2306 6.61368 27.8273 7.46676 27.442 8.29614C27.0568 9.12553 26.6534 9.94306 26.2742 10.7606C25.495 12.3768 24.8018 14.0319 24.1974 15.7191C24.1613 15.8258 24.1312 15.9205 24.0951 16.0153C24.0606 16.1273 24.0606 16.2469 24.0951 16.3589L25.2629 16.2582C25.6422 16.2227 26.0274 16.2049 26.4066 16.2049C26.9063 16.2049 27.4119 16.2049 27.9116 16.2049C28.4112 16.2049 28.9168 16.2049 29.4165 16.2049C29.7295 16.2049 29.9101 16.1753 29.9643 16.116C30.0172 15.9462 30.0172 15.7646 29.9643 15.5947C29.8077 14.3684 29.6512 13.1421 29.4947 11.9277C29.3382 10.7132 29.1877 9.48691 29.0312 8.25468C28.977 7.86368 28.9289 7.46084 28.8747 7.06985C28.8205 6.67885 28.7182 6.18714 28.6459 5.72506Z" fill="#DFF7DA"/>
<path d="M45.3197 25.2774C45.4202 24.9345 45.5206 24.5917 45.627 24.2429C45.7334 23.8941 45.822 23.5513 45.9048 23.2084C46.0407 22.6173 46.1943 22.0675 46.3657 21.5118C46.5331 20.9539 46.7304 20.4053 46.9567 19.8685C47.199 19.2773 47.4472 18.6862 47.7131 18.095C47.9791 17.5039 48.2509 16.9128 48.5405 16.3216C48.8301 15.7305 49.0606 15.2753 49.3442 14.761C49.6279 14.2467 49.9352 13.7501 50.1952 13.2595C50.4553 12.7689 50.6739 12.4496 50.9103 12.0772C51.1467 11.7048 51.4008 11.2969 51.6786 10.8949C51.8546 10.6363 52.0523 10.393 52.2696 10.1678C52.4823 9.93729 52.6891 9.70083 52.8605 9.46437C52.9787 9.32841 53.0969 9.20427 53.2092 9.09787C53.3215 8.99146 53.4338 8.86141 53.552 8.72545C53.6584 8.59226 53.7945 8.48596 53.9496 8.41511C54.1046 8.34426 54.2741 8.31084 54.4444 8.31756L54.9644 8.37077C55.1298 8.37961 55.2955 8.37961 55.4608 8.37077C55.6434 8.37827 55.8164 8.45425 55.9454 8.58358C56.0623 8.70994 56.1728 8.84212 56.2764 8.97964C56.408 9.14273 56.5154 9.32389 56.5955 9.51757C56.6731 9.71024 56.7382 9.9077 56.7905 10.1087C56.9719 10.9269 57.0787 11.7599 57.1096 12.5974C57.1319 13.4354 57.1102 14.274 57.0446 15.1098C56.9914 15.8251 56.9383 16.5344 56.8792 17.2497C56.8201 17.965 56.7728 18.6803 56.7373 19.3956C56.6546 20.637 56.5955 21.8784 56.56 23.1197C56.5246 24.3552 56.56 25.6025 56.56 26.838C56.5955 27.4292 56.625 28.0203 56.6487 28.6115C56.6758 29.2061 56.741 29.7985 56.8437 30.3849C56.8733 30.574 56.9028 30.7514 56.9324 30.911C56.9619 31.0706 56.9855 31.2361 57.021 31.4076C57.0537 31.5375 57.0754 31.67 57.086 31.8036C57.0858 31.948 57.0357 32.088 56.9442 32.1997C56.9693 32.3139 56.9646 32.4327 56.9304 32.5445C56.8962 32.6563 56.8338 32.7575 56.7491 32.8381C56.5684 32.9831 56.3698 33.1043 56.1582 33.1987C55.9375 33.2815 55.7248 33.3701 55.5199 33.4647C55.3039 33.5646 55.083 33.6534 54.858 33.7307C54.5073 33.8492 54.1273 33.8492 53.7765 33.7307C53.421 33.6326 53.1049 33.4259 52.8724 33.1396C52.8215 33.0722 52.789 32.9928 52.7778 32.9091C52.7701 32.822 52.7502 32.7364 52.7187 32.6549C52.7011 32.5913 52.6911 32.5258 52.6892 32.4598C52.6975 32.397 52.6975 32.3334 52.6892 32.2706C52.3338 30.4048 52.1793 28.5062 52.2282 26.6075C52.2282 26.2351 52.2282 25.8626 52.2282 25.502C52.2215 25.1311 52.2353 24.7601 52.2696 24.3907C52.305 23.7996 52.3464 23.2084 52.4055 22.6173C52.4646 22.0261 52.5237 21.435 52.5769 20.8439C52.6241 20.3473 52.6773 19.8566 52.7423 19.366C52.8073 18.8753 52.8724 18.3788 52.9551 17.8822C53.0102 17.4881 53.0753 17.094 53.1501 16.6999C53.2269 16.3098 53.2979 15.9196 53.3629 15.5177C53.4811 14.7906 53.6111 14.0635 53.747 13.3423C53.8825 12.612 53.9674 11.8733 54.0011 11.1314C54.0158 11.0314 54.0158 10.9299 54.0011 10.8299C54.0011 10.7235 54.0011 10.6053 54.0011 10.4693C53.5036 10.8162 53.0714 11.2485 52.7246 11.7462C52.5414 12.0358 52.3641 12.3373 52.2046 12.627C52.045 12.9166 51.8795 13.2181 51.7081 13.5078L51.1172 14.4773C50.9221 14.7965 50.7271 15.1216 50.5262 15.4408C50.3258 15.7885 50.1462 16.1477 49.9884 16.5167L49.2851 18.03C49.0606 18.5325 48.8242 19.0409 48.5878 19.5492C48.4873 19.7857 48.3928 20.0399 48.3041 20.3C48.2155 20.5601 48.1386 20.8261 48.05 21.0803C47.8313 21.7424 47.6127 22.4045 47.3999 23.0725C47.1872 23.7404 46.9803 24.3966 46.7794 25.0587C46.6595 25.3961 46.5647 25.7418 46.4957 26.0932C46.4248 26.442 46.3421 26.7848 46.2416 27.1218C46.1063 27.6184 46.0211 28.1274 45.9875 28.641C45.952 29.1612 45.8929 29.6755 45.8102 30.1839C45.7747 30.4203 45.7275 30.6627 45.6684 30.8992C45.6092 31.1351 45.5618 31.3738 45.5265 31.6145C45.4911 31.8332 45.4674 32.0519 45.4497 32.2647C45.4301 32.4657 45.3885 32.664 45.3256 32.8559C45.2462 33.1777 45.125 33.4877 44.9651 33.778C44.9142 33.893 44.842 33.9973 44.7524 34.0854C44.6438 34.1715 44.527 34.2468 44.4037 34.3101C44.2882 34.3623 44.1639 34.3924 44.0373 34.3987C43.9073 34.3987 43.7773 34.3987 43.6413 34.3987C43.5173 34.4052 43.393 34.4052 43.269 34.3987C43.2115 34.3943 43.1557 34.3771 43.1056 34.3485C43.0556 34.3199 43.0125 34.2805 42.9794 34.2332C42.6197 33.867 42.3329 33.4357 42.1343 32.9623C41.8738 32.2964 41.676 31.6077 41.5434 30.9051C41.4074 30.2194 41.2952 29.5159 41.2124 28.8006C41.1238 27.9848 41.0351 27.1691 40.9287 26.3533C40.8224 25.5375 40.7515 24.7217 40.6983 23.906C40.651 22.9365 40.6214 21.967 40.6096 20.9857C40.5978 20.0044 40.6096 19.029 40.6096 18.03C40.6096 17.2674 40.6096 16.499 40.6746 15.7364C40.7396 14.9738 40.7574 14.1935 40.7869 13.4132C40.8401 12.4437 40.9169 11.4388 41.0174 10.4043C41.0537 10.1104 41.113 9.8199 41.1947 9.53532C41.2848 9.24278 41.4225 8.96714 41.6025 8.71954C41.6755 8.59817 41.7763 8.49582 41.8964 8.42082C42.0166 8.34582 42.1528 8.30032 42.2939 8.28801C42.5126 8.24645 42.7371 8.24645 42.9558 8.28801C43.1854 8.35773 43.3785 8.5148 43.4936 8.72545C43.6374 8.9459 43.7601 9.17946 43.86 9.423C43.9804 9.70137 44.0581 9.99632 44.0905 10.2979C44.12 10.6348 44.1673 10.9659 44.2146 11.2792C44.2619 11.5925 44.315 11.9176 44.3682 12.2605C44.451 12.7393 44.516 13.2063 44.5573 13.6615C44.5987 14.1167 44.6342 14.5955 44.646 15.092C44.6814 15.8073 44.7228 16.5108 44.7642 17.2083C44.8055 17.9059 44.8469 18.6093 44.8765 19.3246L44.9828 21.6064C45.0124 22.3631 45.0478 23.1257 45.0833 23.8882C45.0833 24.1306 45.1188 24.3611 45.1365 24.5917C45.1542 24.8222 45.1779 25.0528 45.2074 25.2951L45.3197 25.2774Z" fill="#DFF7DA"/>
<path d="M63.3556 25.2775C63.4666 24.9347 63.5714 24.5918 63.6763 24.2431C63.7811 23.8943 63.8798 23.5514 63.9723 23.2086C64.1141 22.6175 64.2745 22.0677 64.4472 21.5121C64.6193 20.9533 64.8252 20.4046 65.0639 19.8687C65.3106 19.2776 65.5758 18.6865 65.8472 18.0954C66.1185 17.5042 66.4084 16.9131 66.7106 16.322C67.0128 15.7308 67.2595 15.2757 67.5494 14.7614C67.8392 14.2471 68.1661 13.7506 68.4436 13.2599C68.7212 12.7693 68.937 12.4501 69.1899 12.0777C69.4427 11.7053 69.7018 11.2974 69.9855 10.8954C70.1712 10.6382 70.3774 10.3951 70.6022 10.1683C70.8242 9.93781 71.0401 9.70136 71.2559 9.46491C71.3793 9.32895 71.4965 9.20481 71.6137 9.09841C71.7308 8.99201 71.848 8.86196 71.9714 8.726C72.083 8.59353 72.2253 8.48773 72.3869 8.41695C72.5485 8.34617 72.7251 8.31233 72.9026 8.31812L73.4515 8.37133C73.6241 8.38045 73.797 8.38045 73.9696 8.37133C74.1598 8.37996 74.3399 8.45577 74.4753 8.58413C74.5973 8.71049 74.7126 8.84267 74.8207 8.98019C74.958 9.14328 75.0702 9.32443 75.1537 9.5181C75.2355 9.70992 75.3015 9.90756 75.3511 10.1092C75.5464 10.9264 75.6579 11.7599 75.6841 12.5979C75.7104 13.4359 75.6878 14.2746 75.6163 15.1102C75.5669 15.8254 75.5053 16.5348 75.4436 17.25C75.3819 17.9653 75.3326 18.6806 75.3017 19.3958C75.2072 20.6372 75.1434 21.8786 75.1106 23.1199C75.0797 24.3554 75.1106 25.6026 75.1106 26.8381L75.2031 28.6115C75.2293 29.206 75.2953 29.7984 75.4004 30.3849C75.4374 30.574 75.4683 30.7514 75.4929 30.911C75.5176 31.0706 75.5546 31.2361 75.5854 31.4075C75.6225 31.5369 75.6453 31.6696 75.6533 31.8036C75.6563 31.9485 75.6036 32.0895 75.5053 32.1996C75.5323 32.3133 75.5283 32.4318 75.4937 32.5436C75.4592 32.6554 75.3952 32.7568 75.3079 32.838C75.1182 32.9816 74.9112 33.1027 74.6912 33.1986C74.4568 33.2814 74.2348 33.3701 74.0251 33.4646C73.8092 33.5592 73.581 33.6479 73.3343 33.7306C72.9662 33.8491 72.5677 33.8491 72.1996 33.7306C71.8285 33.6325 71.4987 33.4258 71.2559 33.1395C71.2023 33.0729 71.1702 32.9928 71.1634 32.909C71.1562 32.8211 71.1332 32.7352 71.0956 32.6548C71.0873 32.59 71.0873 32.5245 71.0956 32.4597C71.1012 32.3968 71.1012 32.3335 71.0956 32.2706C70.7185 30.4056 70.5572 28.5064 70.6145 26.6076C70.6145 26.2352 70.6145 25.8627 70.6145 25.5022C70.6023 25.1313 70.6147 24.7602 70.6515 24.3908C70.6886 23.7997 70.7379 23.2086 70.7996 22.6175C70.8612 22.0263 70.9167 21.4352 70.9722 20.8441C71.0278 20.3475 71.0833 19.8569 71.1449 19.3663C71.2066 18.8756 71.2806 18.3791 71.3731 17.8825C71.4225 17.4924 71.4903 17.1023 71.5705 16.7003C71.6507 16.2983 71.7247 15.92 71.7987 15.518C71.922 14.791 72.0515 14.0639 72.1934 13.3427C72.3369 12.6126 72.4275 11.8739 72.4648 11.1319C72.474 11.0316 72.474 10.9307 72.4648 10.8304C72.4581 10.7103 72.4581 10.5899 72.4648 10.4698C71.9427 10.8134 71.4911 11.2462 71.1326 11.7467C70.9352 12.0363 70.7564 12.3378 70.5837 12.6274C70.411 12.9171 70.2445 13.2186 70.0656 13.5082C69.8868 13.7979 69.6709 14.1525 69.4489 14.4777C69.2269 14.8028 69.048 15.122 68.8322 15.4412C68.6249 15.7889 68.4396 16.1481 68.2771 16.517C68.0242 17.0254 67.7837 17.5338 67.5432 18.0303L66.8093 19.5495C66.7044 19.786 66.6057 20.0402 66.5194 20.3002C66.4331 20.5603 66.3406 20.8264 66.2542 21.0805C66.0199 21.7426 65.7978 22.4047 65.5758 23.0726C65.3538 23.7406 65.1379 24.3968 64.9221 25.0588C64.7998 25.397 64.7009 25.7426 64.626 26.0933C64.5595 26.441 64.4709 26.7845 64.3608 27.1218C64.2196 27.6185 64.1307 28.1274 64.0956 28.641C64.0586 29.1612 63.997 29.6755 63.9106 30.1839C63.8736 30.4203 63.8243 30.6627 63.7626 30.8991C63.6999 31.1345 63.6525 31.3734 63.6207 31.6144C63.5822 31.8297 63.5555 32.0467 63.5406 32.2646C63.5181 32.4659 63.4726 32.6641 63.4049 32.8558C63.327 33.1782 63.2025 33.4886 63.0348 33.7779C62.9776 33.8921 62.9004 33.9961 62.8067 34.0853C62.6957 34.1716 62.5758 34.2469 62.4489 34.3099C62.3265 34.3629 62.1946 34.393 62.0604 34.3986C61.9309 34.3986 61.789 34.3986 61.6472 34.3986C61.5198 34.4052 61.3922 34.4052 61.2648 34.3986C61.2037 34.395 61.1443 34.3783 61.0909 34.3496C61.0375 34.3209 60.9916 34.2811 60.9564 34.2331C60.5828 33.8667 60.2856 33.4354 60.0807 32.9622C59.8089 32.2963 59.6025 31.6076 59.4639 30.9051C59.3221 30.2193 59.2111 29.5159 59.1186 28.8006C59.0322 27.9849 58.9335 27.1691 58.8287 26.3534C58.7239 25.5376 58.6437 24.7219 58.5882 23.9061C58.5327 22.9367 58.5018 21.9672 58.4957 20.986C58.4895 20.0047 58.4957 19.0293 58.4957 18.0303C58.4957 17.2678 58.4957 16.4993 58.5573 15.7368C58.619 14.9742 58.6437 14.1939 58.6807 13.4136C58.73 12.4442 58.8102 11.4393 58.9212 10.4048C58.9531 10.11 59.0151 9.81902 59.1062 9.53585C59.1951 9.24137 59.3393 8.96492 59.5318 8.72009C59.6063 8.59853 59.7102 8.49589 59.8346 8.4208C59.9591 8.34571 60.1006 8.30037 60.2472 8.28857C60.4774 8.24626 60.7139 8.24626 60.9441 8.28857C61.1811 8.3602 61.38 8.51695 61.4992 8.726C61.6511 8.94636 61.7812 9.1799 61.8877 9.42353C61.9866 9.6749 62.0529 9.93695 62.0851 10.2038C62.1221 10.5408 62.1653 10.8718 62.2208 11.1851C62.2763 11.4984 62.3256 11.8235 62.3811 12.1664C62.4674 12.6452 62.5353 13.1122 62.5785 13.5673C62.6216 14.0225 62.6525 14.5013 62.671 14.9978C62.708 15.7131 62.745 16.4166 62.7882 17.1141C62.8313 17.8116 62.8745 18.515 62.9115 19.2303C62.9485 19.9456 62.9793 20.7554 63.0163 21.5121C63.0533 22.2687 63.0842 23.0313 63.1212 23.7938C63.1212 24.0362 63.1582 24.2667 63.1767 24.4972C63.1952 24.7278 63.2199 24.9583 63.2569 25.2007L63.3556 25.2775Z" fill="#DFF7DA"/>
<path d="M95.0082 34.3982C94.8155 34.416 94.6212 34.3897 94.4404 34.3212C94.2637 34.2796 94.0944 34.2117 93.9384 34.1198C93.7464 34.0063 93.5764 33.8599 93.4363 33.6874C92.9275 32.9722 92.525 32.1883 92.241 31.3598C91.966 30.5424 91.721 29.6954 91.5178 28.8307C91.3983 28.3036 91.2907 27.7705 91.207 27.2434C91.1233 26.7163 91.0516 26.1832 91.0038 25.6383C90.9142 24.8151 90.8245 24.0155 90.7289 23.2218C90.6332 22.4282 90.5436 21.6227 90.4599 20.8053C90.4599 20.5862 90.43 20.3611 90.4241 20.142C90.4181 19.9228 90.3882 19.68 90.3583 19.4253C90.2029 19.6148 90.0714 19.7866 89.9579 19.9524C89.8437 20.1126 89.7531 20.2881 89.6889 20.4736C89.3783 21.283 89.0211 22.074 88.6191 22.8428L87.3939 25.1823C87.2079 25.4984 87.0442 25.827 86.9038 26.1655C86.7622 26.5034 86.5985 26.8318 86.4137 27.1486C86.2796 27.3839 86.1319 27.6113 85.9714 27.8298L85.5112 28.4517C85.1377 28.9041 84.7386 29.3351 84.3159 29.7428C83.8964 30.1502 83.4091 30.4828 82.8755 30.726C82.0352 31.1651 81.0841 31.3524 80.1382 31.265C79.7089 31.243 79.2945 31.1014 78.9429 30.8563C78.5985 30.6087 78.2976 30.3065 78.0524 29.962C77.785 29.6177 77.5826 29.2285 77.4547 28.813C77.3224 28.3961 77.2304 27.9677 77.1798 27.5336C77.0614 26.7255 77.0414 25.9063 77.12 25.0934C77.1972 24.2738 77.3209 23.4591 77.4905 22.6532C77.628 22.061 77.7774 21.4687 77.9448 20.8764C78.1105 20.297 78.339 19.737 78.6261 19.2062C79.302 17.9195 80.1909 16.7543 81.2559 15.7591C81.8969 15.1525 82.5777 14.5886 83.2939 14.0711C84.0139 13.5481 84.7824 13.0939 85.5889 12.7148C87.1866 11.9487 88.8909 11.4237 90.6452 11.1571C90.6865 11.1667 90.7294 11.1667 90.7707 11.1571C90.802 11.14 90.8367 11.1299 90.8723 11.1275C91.0098 10.701 91.1413 10.2983 91.2608 9.91328C91.3803 9.5283 91.5118 9.14332 91.6493 8.72872C91.6757 8.63927 91.723 8.55724 91.7873 8.48932C91.8517 8.4214 91.9314 8.36949 92.0198 8.33782C92.2088 8.26057 92.4161 8.23798 92.6175 8.27267C92.8093 8.27926 92.9968 8.3304 93.165 8.42196C93.3331 8.51351 93.4773 8.64293 93.5857 8.79979C93.7831 9.06674 93.9105 9.37815 93.9563 9.70598C94.0443 10.0944 94.0745 10.4935 94.0459 10.8905C94.0459 11.2992 93.9921 11.696 93.9563 12.0751C93.9085 13.0761 93.8666 14.077 93.8308 15.072C93.7939 16.0736 93.8199 17.0765 93.9085 18.0749C94.0101 19.3365 94.1595 20.5803 94.3567 21.7944C94.5539 23.0086 94.793 24.2346 95.0679 25.4606C95.2233 26.1951 95.3967 26.9236 95.5819 27.6462C95.7672 28.3687 95.9585 29.0913 96.1796 29.808C96.2812 30.2167 96.4007 30.6135 96.5263 30.9925L96.9267 32.1771C96.9267 32.2482 96.9685 32.3666 97.0044 32.5384C97.0519 32.7386 97.0243 32.9491 96.9267 33.1307C96.8176 33.304 96.6871 33.4632 96.5382 33.6045C96.408 33.7337 96.2564 33.8399 96.0899 33.9184C95.9286 33.9954 95.7672 34.0724 95.6118 34.1375C95.4169 34.2381 95.2152 34.3251 95.0082 34.3982ZM82.6305 28.1141H82.762C82.8433 28.0894 82.9215 28.0557 82.9951 28.0134C83.9475 27.461 84.7241 26.6544 85.2363 25.6857C85.3917 25.3955 85.5351 25.0934 85.6607 24.8151C85.7862 24.5367 85.9356 24.2228 86.091 23.9503C86.3779 23.4054 86.6886 22.8783 87.0293 22.363C87.3676 21.8452 87.6406 21.2883 87.8421 20.7046C88.0178 20.2427 88.2173 19.79 88.4398 19.3483C88.6669 18.9041 88.8701 18.4658 89.0375 18.0216L89.7547 16.2803C89.989 15.7002 90.1886 15.1069 90.3523 14.5035C90.4061 14.3139 90.448 14.1303 90.4838 13.9408C90.5118 13.7433 90.5017 13.5423 90.454 13.3485C90.2751 13.3818 90.0992 13.4293 89.928 13.4907C89.7622 13.5491 89.6022 13.6225 89.4499 13.7098C88.8522 14.0119 88.2246 14.3376 87.6569 14.6811C87.0614 15.0196 86.4885 15.3954 85.9416 15.8065C85.5029 16.1379 85.0819 16.4917 84.6805 16.8667C84.2807 17.2296 83.9559 17.6661 83.7242 18.1519C83.6226 18.377 83.515 18.5902 83.4015 18.8034C83.2904 19.0144 83.1926 19.232 83.1086 19.4549C82.9652 19.8162 82.8337 20.1775 82.7082 20.5447C82.5778 20.907 82.4701 21.2769 82.3854 21.6523C82.2967 21.9765 82.2347 22.3072 82.2002 22.6414C82.2002 22.9731 82.1344 23.3107 82.0986 23.6483C82.0329 24.2085 82.003 24.7723 82.0089 25.3363C82.017 25.9006 82.073 26.4633 82.1763 27.0183C82.2128 27.2183 82.2607 27.416 82.3197 27.6106C82.3938 27.79 82.5059 27.9516 82.6484 28.0844L82.6305 28.1141Z" fill="#DFF7DA"/>
<path d="M99.3027 8.05453C99.2353 8.03021 99.1777 7.98282 99.1395 7.92009C99.1013 7.85736 99.0847 7.783 99.0924 7.70918C99.0936 7.61226 99.1184 7.51724 99.1644 7.43291C99.2121 7.32996 99.2716 7.23334 99.3415 7.14513C99.4071 7.06061 99.488 6.99023 99.5795 6.93793C99.6535 6.88923 99.7422 6.87078 99.8286 6.88613C100.006 6.92066 100.194 6.95519 100.382 6.98397C100.593 7.01753 100.788 7.12276 100.936 7.28327L101.03 7.38112C101.167 7.74804 101.192 8.14996 101.102 8.53225C100.999 8.90905 100.758 9.22917 100.432 9.42438C100.336 9.49332 100.226 9.53681 100.111 9.55101C99.9859 9.56814 99.8621 9.59312 99.74 9.62583C99.7067 9.63684 99.6708 9.63539 99.6384 9.62172C99.6061 9.60806 99.5794 9.58304 99.5629 9.55101C99.54 9.51845 99.5276 9.47913 99.5276 9.43877C99.5276 9.39841 99.54 9.3591 99.5629 9.32654C99.5952 9.26316 99.6363 9.205 99.6847 9.15386C99.7622 9.07329 99.8396 8.98695 99.9061 8.90637C99.9725 8.82579 100.056 8.73946 100.133 8.65888C100.172 8.6008 100.217 8.54683 100.266 8.49772C100.292 8.46889 100.306 8.43081 100.306 8.39124C100.306 8.35167 100.292 8.31358 100.266 8.28475C100.249 8.25833 100.226 8.23666 100.199 8.22161C100.172 8.20657 100.141 8.1986 100.111 8.19842L99.9116 8.15813L99.6736 8.11209L99.4577 8.07179C99.4056 8.07185 99.3537 8.06606 99.3027 8.05453Z" fill="#DFF7DA"/>
<path d="M103.676 23.5636C104.068 23.92 104.438 24.301 104.782 24.7041C105.118 25.1134 105.342 25.604 105.429 26.1267C105.511 26.6088 105.621 27.0858 105.758 27.5552C105.974 28.3216 106.395 29.0146 106.975 29.5598C107.184 29.7678 107.404 29.9641 107.634 30.1476C107.827 30.2963 108.053 30.3971 108.293 30.4416C108.528 30.4826 108.767 30.4944 109.004 30.4768C109.187 30.4529 109.361 30.3842 109.51 30.277C109.713 30.0979 109.9 29.9011 110.069 29.6891C110.242 29.4622 110.372 29.2051 110.451 28.9308C110.684 28.1548 110.82 27.3532 110.857 26.5441C110.888 25.7313 110.785 24.9189 110.551 24.1397C110.42 23.642 110.233 23.1608 109.993 22.7054C109.757 22.2544 109.494 21.8185 109.204 21.4003C108.869 20.9242 108.534 20.4598 108.205 20.0012C107.875 19.5427 107.569 19.0724 107.281 18.5845C106.923 17.9966 106.599 17.4088 106.299 16.7798C106.002 16.1628 105.769 15.5166 105.605 14.8516C105.488 14.3451 105.445 13.8244 105.476 13.3055C105.511 12.782 105.618 12.2658 105.793 11.7712C105.969 11.2769 106.216 10.8113 106.528 10.3898C106.831 9.94925 107.205 9.5619 107.634 9.24345L108.04 8.99068L108.446 8.73202C108.83 8.49895 109.259 8.34877 109.704 8.29113C110.143 8.23297 110.588 8.24887 111.022 8.33816C111.45 8.42915 111.864 8.57953 112.251 8.78492C112.621 8.97427 112.963 9.21361 113.268 9.49623C113.875 10.0873 114.426 10.7328 114.915 11.4244C115.102 11.6721 115.26 11.9404 115.386 12.2239L115.78 13.0704C115.868 13.2585 115.944 13.4349 116.009 13.6054C116.074 13.7758 116.15 13.9522 116.238 14.1344C116.288 14.247 116.304 14.371 116.287 14.4926C116.269 14.6141 116.218 14.7283 116.138 14.8222C116.092 14.9005 116.03 14.9685 115.956 15.0221C115.913 15.0438 115.866 15.0551 115.818 15.0551C115.77 15.0551 115.723 15.0438 115.68 15.0221C115.629 15.0229 115.579 15.0135 115.532 14.9946C115.486 14.9757 115.443 14.9476 115.408 14.9119C115.372 14.8763 115.344 14.8339 115.325 14.7871C115.306 14.7404 115.297 14.6904 115.297 14.64C115.262 14.4871 115.233 14.3343 115.209 14.1814C115.185 14.0353 115.148 13.8916 115.097 13.7523C114.881 13.2196 114.598 12.7161 114.256 12.2533C113.915 11.7915 113.495 11.3935 113.015 11.0776C112.803 10.938 112.571 10.831 112.327 10.7601L111.592 10.5426C111.443 10.5074 111.288 10.5074 111.139 10.5426C110.981 10.5923 110.84 10.6861 110.734 10.813C110.42 11.1683 110.155 11.5636 109.945 11.9887C109.738 12.4132 109.618 12.875 109.593 13.3467C109.574 13.5787 109.6 13.8123 109.669 14.0345C109.731 14.2395 109.815 14.4367 109.922 14.6223C110.253 15.2883 110.621 15.9358 111.022 16.5623C111.422 17.1795 111.833 17.7909 112.251 18.4023C112.592 18.8608 112.915 19.3252 113.215 19.7955C113.515 20.2658 113.804 20.7596 114.08 21.271C114.804 22.6063 115.22 24.0866 115.297 25.6035C115.331 26.3879 115.31 27.1736 115.233 27.9549C115.159 28.7333 115.003 29.5017 114.768 30.2476C114.557 31.1007 114.173 31.9011 113.639 32.599C113.082 33.2796 112.362 33.8075 111.545 34.1333C111.19 34.2807 110.812 34.3662 110.428 34.3861C110.048 34.4094 109.667 34.4094 109.287 34.3861C108.12 34.288 106.999 33.8824 106.04 33.2104C105.671 32.9483 105.327 32.6531 105.011 32.3286C104.699 32.0053 104.394 31.6761 104.111 31.3351C103.423 30.4513 102.929 29.4315 102.664 28.3429C102.547 27.9005 102.507 27.441 102.547 26.985C102.591 26.534 102.682 26.0888 102.817 25.6564C102.933 25.2908 103.069 24.9317 103.223 24.5806C103.4 24.322 103.517 23.9399 103.676 23.5636Z" fill="#DFF7DA"/>
<path d="M28.2465 46.3132C31.8334 45.6333 35.4564 45.1555 39.0981 44.8819C40.9789 44.7294 42.8894 44.6062 44.8117 44.4889C46.734 44.3715 48.6741 44.3598 50.6142 44.3011C58.3688 44.0489 66.1292 44.1956 73.16 43.7145C81.8653 43.1721 90.5984 43.2328 99.2952 43.8964L102.6 44.131L105.893 44.4595L112.419 45.1693L118.886 46.0727L122.078 46.5361L125.229 47.0699C125.098 47.8208 123.526 48.7066 124.849 49.3166C130.189 51.3815 129.898 52.8715 129.625 54.3673C129.483 55.1123 125.519 53.6693 126.754 54.6489C124.593 54.2687 122.415 53.9985 120.227 53.8394C118.483 53.7807 117.759 53.9626 119.752 54.6313C120.998 55.5699 126.564 55.8045 127.721 57.1244C128.878 58.4443 125.941 59.1365 127.127 60.4857C128.48 60.691 131.15 61.2307 132.467 61.4946C133.654 62.5036 130.687 63.4656 132.022 63.7296C134.2 64.5178 136.438 65.1337 138.715 65.5716L146.481 67.2258C146.309 67.9767 147.43 68.9856 144.701 68.7803C121.503 63.7724 97.8417 61.1539 74.0974 60.9667C50.4148 60.767 26.7578 62.5547 3.38095 66.3107C-1.95883 66.868 1.69002 64.6799 5.48719 62.8556C4.22938 63.4422 4.02172 62.3452 2.75798 62.9494C2.54438 61.8466 4.87015 59.4298 10.2159 58.2038C8.85719 58.3915 7.51631 58.6437 6.1695 58.8784C4.75742 58.7434 5.97371 57.7579 5.84318 57.0071C7.19592 56.7724 8.54866 56.5319 8.48933 56.1565C8.43 55.7811 8.30541 55.0302 8.24014 54.6606L2.79357 55.6168C4.15225 55.3763 5.51686 55.1358 5.45159 54.7662L5.19054 53.2645C7.86043 52.367 12.1144 52.5606 14.8081 51.7628L14.6419 50.6365C11.8297 50.6834 7.73583 51.6161 4.99475 52.1441C6.30596 51.5575 6.24069 51.1527 6.1161 50.3843C8.15115 49.7977 10.2693 49.7449 12.3577 49.5161C14.4713 49.3578 16.5511 48.9014 18.534 48.161C17.1398 48.3194 15.7574 48.5306 14.3809 48.7476C15.1442 48.1248 16.0476 47.6923 17.0152 47.4864C18.2264 47.2204 19.456 47.044 20.6937 46.9585C23.3517 46.7708 26.164 46.6652 28.2465 46.3132Z" fill="#DFF7DA"/>
<path d="M22.2489 57.798L19.9617 53.5544L21.1913 53.4052L22.8286 56.652L23.5486 53.1247L24.7782 52.9814L23.6951 57.6249L22.2489 57.798Z" fill="#DFF7DA"/>
<path d="M28.6377 57.1105L28.2175 52.4197L29.1682 52.2939L29.5937 56.9847L28.6377 57.1105Z" fill="#DFF7DA"/>
<path d="M35.7639 51.7066L36.7834 51.6055L37.1643 56.0652L36.1448 56.1603L34.1954 53.5202L34.4363 56.3268L33.4168 56.422L33.0359 51.9623L34.0554 51.8671L36.0048 54.5073L35.7639 51.7066Z" fill="#DFF7DA"/>
<path d="M40.6615 52.0342L40.6042 51.1715L43.9874 50.917L44.0446 51.7797L42.8711 51.8666L43.1115 55.6528L42.0697 55.7335L41.8235 51.9473L40.6615 52.0342Z" fill="#DFF7DA"/>
<path d="M50.5108 54.9018L50.2503 54.2421L48.7541 54.3112L48.5602 54.9975L47.4851 55.0454L48.7209 50.9755L49.9511 50.917L51.6135 54.8539L50.5108 54.9018ZM48.9702 53.5398L49.9566 53.4973L49.4025 52.0981L48.9702 53.5398Z" fill="#DFF7DA"/>
<path d="M55.7053 54.4065C55.3016 53.9532 55.0679 53.3434 55.0523 52.7025C55.0368 52.0615 55.2405 51.4383 55.6217 50.961C55.9783 50.562 56.4446 50.3101 56.9448 50.2464C57.445 50.1827 57.9497 50.3109 58.3768 50.6102C58.7458 50.8743 59.0232 51.2722 59.1632 51.7378L57.9474 51.7754C57.8756 51.6166 57.7638 51.4851 57.626 51.3971C57.4881 51.3091 57.3303 51.2685 57.1721 51.2805C57.0184 51.277 56.8657 51.3105 56.7243 51.3785C56.583 51.4466 56.4561 51.5477 56.3523 51.6752C56.1517 51.9561 56.054 52.3122 56.079 52.6712C56.0714 53.0326 56.1895 53.3831 56.4081 53.6485C56.5136 53.7702 56.6419 53.8643 56.7836 53.9238C56.9254 53.9834 57.0771 54.007 57.2279 53.993C57.43 53.9894 57.6257 53.9125 57.7856 53.7737C57.9375 53.6308 58.0417 53.4343 58.0812 53.2162L56.8989 53.2538V52.383L59.1799 52.3141V53.1849C59.0993 53.6502 58.8906 54.0754 58.5832 54.4002C58.4146 54.5945 58.2137 54.7498 57.992 54.8575C57.7512 54.9772 57.4913 55.0412 57.2279 55.0454C56.9492 55.0567 56.6712 55.0061 56.4099 54.8964C56.1486 54.7868 55.9092 54.6203 55.7053 54.4065Z" fill="#DFF7DA"/>
<path d="M65.3741 50.2359V50.998H63.7537V51.8807H65.1835V52.6428H63.7537V53.5968H65.3682V54.3589H62.6576L62.6218 50.2305L65.3741 50.2359Z" fill="#DFF7DA"/>
<path d="M74.8785 54.2952C74.6852 54.0645 74.5363 53.7911 74.4411 53.4922C74.346 53.1932 74.3067 52.8753 74.3257 52.5583C74.3235 52.2387 74.381 51.9221 74.4944 51.6293C74.6077 51.3365 74.7744 51.074 74.9835 50.8589C75.1874 50.6438 75.4277 50.4776 75.6899 50.3702C75.9521 50.2628 76.2308 50.2165 76.5092 50.2341C76.946 50.2379 77.371 50.3951 77.7253 50.6839C78.0787 50.9701 78.3344 51.3847 78.4495 51.8585L77.2444 51.821C77.182 51.6586 77.0782 51.5208 76.9463 51.4251C76.8144 51.3294 76.6604 51.2802 76.5037 51.2837C76.3517 51.2699 76.1989 51.2935 76.0558 51.3528C75.9126 51.4122 75.7826 51.5058 75.6745 51.6274C75.4608 51.8936 75.346 52.2426 75.3539 52.602C75.3292 52.9591 75.4283 53.3131 75.6303 53.5892C75.7323 53.7158 75.8571 53.8164 75.9963 53.8843C76.1354 53.9522 76.2858 53.9857 76.4373 53.9828C76.5944 53.9964 76.7514 53.9566 76.8883 53.8687C77.0252 53.7808 77.1357 53.6486 77.2057 53.4892L78.4108 53.5267C78.2759 53.9916 78.0023 54.3891 77.6369 54.6513C77.211 54.9602 76.7042 55.0945 76.2012 55.032C75.6981 54.9694 75.2293 54.7138 74.873 54.3077L74.8785 54.2952Z" fill="#DFF7DA"/>
<path d="M82.1124 50.2305L83.3165 50.2868L83.1379 54.1137L84.6397 54.1764L84.6 55.047L81.8875 54.928L82.1124 50.2305Z" fill="#DFF7DA"/>
<path d="M88.5919 54.9373C88.4088 54.6974 88.2697 54.416 88.1832 54.1107C88.0966 53.8053 88.0644 53.4823 88.0886 53.1618C88.0993 52.8413 88.1667 52.5269 88.2865 52.2386C88.4063 51.9502 88.5759 51.6942 88.7846 51.4867C89.2042 51.0832 89.7389 50.8814 90.2805 50.9222C90.8222 50.9629 91.3304 51.2432 91.7025 51.7063C91.8853 51.9449 92.0239 52.2253 92.1096 52.5298C92.1953 52.8343 92.2262 53.1563 92.2004 53.4755C92.171 53.9504 92.0234 54.4049 91.7757 54.7825C91.5281 55.1601 91.1914 55.4443 90.8073 55.5999C90.4232 55.7555 90.0086 55.7757 89.6148 55.6579C89.221 55.5401 88.8654 55.2895 88.5919 54.9373ZM90.862 54.3601C91.0648 54.094 91.1856 53.7559 91.205 53.3999C91.2244 53.0439 91.1413 52.6905 90.969 52.3964C90.8783 52.2654 90.7641 52.1593 90.6346 52.0856C90.5051 52.0119 90.3634 51.9724 90.2195 51.9698C90.0763 51.9508 89.9313 51.9684 89.7945 52.0215C89.6577 52.0746 89.5323 52.1618 89.4271 52.2772C89.2247 52.5447 89.1042 52.8838 89.0848 53.2406C89.0654 53.5974 89.1482 53.9517 89.32 54.2471C89.5132 54.4989 89.783 54.6517 90.0713 54.6728C90.3596 54.6939 90.6435 54.5816 90.862 54.3601Z" fill="#DFF7DA"/>
<path d="M97.4766 52.3829C97.3575 52.3673 97.2361 52.3921 97.1362 52.4526C97.0885 52.4833 97.0492 52.5234 97.0213 52.5698C96.9933 52.6162 96.9775 52.6677 96.975 52.7204C96.9677 52.7744 96.9724 52.8292 96.9888 52.8816C97.0052 52.934 97.033 52.983 97.0706 53.0257C97.1521 53.1111 97.2542 53.1789 97.3692 53.2239C97.4946 53.2721 97.6319 53.3203 97.7931 53.3685C97.9544 53.4167 98.0977 53.4756 98.253 53.5399C98.3984 53.5971 98.5349 53.6709 98.6591 53.7595C98.7866 53.8514 98.8854 53.9713 98.9457 54.1077C99.0138 54.2699 99.0384 54.4443 99.0174 54.6166C99.0018 54.7834 98.9449 54.9449 98.8509 55.0895C98.7569 55.234 98.6281 55.358 98.4739 55.4522C98.1091 55.6767 97.6645 55.7721 97.2258 55.72C96.7858 55.7087 96.3638 55.5611 96.0315 55.3022C95.8894 55.179 95.7819 55.0275 95.7175 54.8599C95.6532 54.6924 95.6339 54.5136 95.6612 54.338L96.8197 54.4291C96.8148 54.5227 96.8391 54.6156 96.8898 54.6975C96.9406 54.7794 97.0158 54.847 97.107 54.8926C97.1982 54.9382 97.3018 54.9601 97.4062 54.9559C97.5105 54.9516 97.6114 54.9213 97.6976 54.8683C97.7472 54.8379 97.7877 54.7972 97.8158 54.7496C97.8439 54.702 97.8587 54.649 97.8588 54.5952C97.8662 54.544 97.8621 54.4921 97.8467 54.4424C97.8313 54.3927 97.805 54.3463 97.7693 54.3059C97.6845 54.225 97.5831 54.1595 97.4707 54.1131C97.3325 54.0562 97.1909 54.0061 97.0467 53.9631C96.8899 53.9138 96.7364 53.8566 96.5869 53.7917C96.4406 53.7307 96.3024 53.6553 96.1748 53.5667C96.0496 53.4762 95.9529 53.3581 95.8941 53.2239C95.8214 53.0646 95.7947 52.8914 95.8165 52.7204C95.8267 52.5475 95.8824 52.3793 95.9789 52.2294C96.0754 52.0796 96.2101 51.9523 96.3719 51.858C96.7276 51.6577 97.1491 51.5726 97.5662 51.6169C97.9798 51.6326 98.3771 51.7658 98.7009 51.9972C98.8451 52.1191 98.9547 52.2704 99.0201 52.4382C99.0856 52.606 99.1051 52.7854 99.0771 52.9614L97.8827 52.8704C97.8878 52.7447 97.8434 52.6214 97.7573 52.5222C97.6854 52.447 97.5858 52.3976 97.4766 52.3829Z" fill="#DFF7DA"/>
<path d="M105.972 52.5429L105.875 53.2586L104.126 53.1082L104.016 53.9432L105.558 54.0729L105.467 54.7886L103.918 54.659L103.802 55.5562L105.551 55.7066L105.46 56.4224L102.532 56.1734L103.044 52.2939L105.972 52.5429Z" fill="#DFF7DA"/>
<path d="M109.413 53.7051L109.51 52.9814L112.853 53.3667L112.757 54.0851L111.619 53.9498L111.187 57.1099L110.152 56.9953L110.584 53.8352L109.413 53.7051Z" fill="#DFF7DA"/>
</svg>
