<svg width="157" height="63" viewBox="0 0 157 63" fill="none" xmlns="http://www.w3.org/2000/svg">
<path d="M13.5949 20.2627H18.0145V20.4213C17.1252 20.4213 17.1632 20.6485 17.1632 21.7268V31.0452C17.1632 32.2451 17.3042 32.5252 18.1935 32.5252V32.6838H12.6731V32.5411C13.5245 32.5411 13.5949 32.2609 13.5949 31.0611V20.7542L8.90966 32.8582H8.74696L2.87951 22.2395V28.0219C2.87951 30.3 3.55193 32.5411 5.65055 32.5411V32.6996H0V32.5411C1.94136 32.5411 2.7114 30.337 2.7114 28.0219V21.9699C2.00644 20.749 1.42619 20.4688 0.921866 20.4318V20.2732H6.07896L10.4606 28.3919L13.5949 20.2627Z" fill="#DFF7DA"/>
<path d="M28.6884 20.2841V20.4072C27.8868 20.4072 27.446 20.4072 27.446 22.0124V30.841C27.446 32.5371 27.8868 32.6976 28.6884 32.6976V32.8582H22.3906V32.7137C23.1922 32.7137 23.633 32.5532 23.633 30.857V22.0124C23.633 20.4393 23.2093 20.4072 22.3906 20.4072V20.2627L28.6884 20.2841Z" fill="#DFF7DA"/>
<path d="M46.0056 28.5038L46.1843 32.0331C44.8928 32.6032 43.4914 32.8838 42.0791 32.8552C38.3208 32.8552 34.9883 30.4936 34.9883 26.5454C34.9883 22.5971 38.3208 20.2617 42.0791 20.2617C44.3393 20.2617 45.7585 20.733 46.1843 21.0681L46.0056 24.5974H45.8689C45.3433 20.9791 43.3564 20.4083 42.0791 20.4083C40.129 20.4083 39.3037 21.775 39.3037 26.5611C39.3037 31.3471 40.1815 32.7138 42.0791 32.7138C43.2723 32.7138 45.2697 31.9965 45.8689 28.5247L46.0056 28.5038Z" fill="#DFF7DA"/>
<path d="M64.3767 32.6969V32.8572H61.034C59.8409 32.8572 59.4735 32.0557 59.0707 28.7371C58.8492 26.9523 56.8355 27.0591 56.8355 27.0591H56.0452V30.8426C56.0452 32.59 56.1106 32.6969 56.8154 32.6969V32.8572H51.7812V32.6969C52.5062 32.6969 52.6572 32.6595 52.6572 30.8426V22.0092C52.6572 20.903 52.5213 20.406 51.7812 20.406V20.2617H56.5889C59.9316 20.2617 62.942 20.6892 62.942 23.6711C62.942 26.343 60.6212 26.8774 59.0103 26.8774C60.9434 26.8774 61.915 27.321 62.7406 30.5326C63.0528 31.9327 63.9438 32.6435 64.3767 32.6969ZM58.97 23.7085C58.97 20.2991 58.5321 20.4594 56.5637 20.4594H56.0603V26.8721H56.5637C58.7485 26.8828 58.97 26.9202 58.97 23.6925V23.7085Z" fill="#DFF7DA"/>
<path d="M82.5675 26.3896C82.5675 30.0048 80.067 32.8577 76.2749 32.8577C72.4829 32.8577 69.9772 30.0048 69.9772 26.3896C69.9531 25.5023 70.0981 24.619 70.4036 23.7919C70.7091 22.9648 71.1689 22.2107 71.7559 21.5741C72.3428 20.9376 73.0449 20.4316 73.8207 20.0861C74.5965 19.7405 75.4301 19.5625 76.2724 19.5625C77.1146 19.5625 77.9482 19.7405 78.724 20.0861C79.4998 20.4316 80.2019 20.9376 80.7889 21.5741C81.3758 22.2107 81.8356 22.9648 82.1411 23.7919C82.4466 24.619 82.5916 25.5023 82.5675 26.3896ZM78.3776 26.3896C78.3776 21.4077 78.3105 19.8996 76.2749 19.8996C74.2394 19.8996 74.1361 21.4077 74.1361 26.3896C74.1361 31.3714 74.2239 32.6944 76.2749 32.6944C78.326 32.6944 78.3673 31.3877 78.3673 26.3896H78.3776Z" fill="#DFF7DA"/>
<path d="M107.761 20.2832V20.4064C107.035 20.4064 105.921 20.9424 104.588 24.11L101.398 32.8572H100.742C99.049 28.9767 97.9511 26.4684 97.2246 24.8444L94.3077 32.8572H93.6522C89.0528 22.3199 88.818 21.8536 88.818 21.8536C88.2007 20.4225 87.944 20.444 87.4688 20.4064V20.2617H93.1606V20.4064C91.9916 20.4064 92.9202 22.4807 92.9202 22.4807L95.6514 28.6176L97.1099 24.63C96.0174 22.0894 95.8918 21.8536 95.8918 21.8536C95.269 20.4225 95.0123 20.444 94.5425 20.4064V20.2617H100.229V20.4064C99.0599 20.4064 99.994 22.4807 99.994 22.4807L102.725 28.6337L104.364 24.11C104.817 22.8398 104.419 20.4064 102.556 20.4064V20.2617L107.761 20.2832Z" fill="#DFF7DA"/>
<path d="M116.484 20.2617H116.599C121.211 30.6383 121.517 31.2278 121.517 31.2278C122.173 32.6589 122.796 32.6803 123.157 32.7125V32.8572H116.758V32.7125C118.217 32.7125 117.124 30.6222 117.124 30.6222L116.539 29.384H112.965C112.599 30.2095 112.927 32.7125 115.118 32.7125V32.8572H109.861V32.7125C110.408 32.6803 111.397 32.5356 112.801 29.384L116.484 20.2617ZM114.643 25.2088L113.003 29.234H116.452L114.643 25.2088Z" fill="#DFF7DA"/>
<path d="M140.651 20.2841V20.4072C139.909 20.4072 138.806 20.9422 137.466 24.1045L134.08 32.8582H133.565C128.953 22.3388 128.711 21.8733 128.711 21.8733C128.092 20.4446 127.835 20.466 127.355 20.4286V20.2841H133.081V20.4072C131.895 20.4072 132.838 22.4779 132.838 22.4779L135.508 28.6419L137.281 24.1045C137.796 22.7829 137.487 20.4072 135.42 20.4072V20.2627L140.651 20.2841Z" fill="#DFF7DA"/>
<path d="M156.045 29.3529V32.8582H145.549V32.7135C146.303 32.7135 146.588 31.6415 146.588 30.4248V22.7335C146.588 21.6241 146.34 20.4074 145.549 20.4074V20.2627H155.814V23.9288H155.652C155.652 20.4449 150.74 20.4235 150.74 20.4235H150.094V26.4157H151.554C151.832 26.4164 152.108 26.3622 152.366 26.2563C152.623 26.1504 152.857 25.9948 153.054 25.7984C153.25 25.6021 153.406 25.369 153.512 25.1125C153.618 24.856 153.672 24.5812 153.67 24.304H153.832V28.6883H153.67C153.662 28.1317 153.436 27.6001 153.041 27.206C152.646 26.8119 152.113 26.5862 151.554 26.5765H150.094V32.7135H150.74C150.74 32.7135 155.884 32.9118 155.884 29.369L156.045 29.3529Z" fill="#DFF7DA"/>
<path d="M41.71 39.8555H42.6843V44.054H41.71V42.3148H40.1598V44.054H39.1855V39.8555H40.1642V41.5358H41.7143L41.71 39.8555Z" fill="#DFF7DA"/>
<path d="M51.6738 44.054L51.3628 43.3535H49.3322L49.0212 44.054H47.582L49.5517 39.8555H51.2226L53.18 44.054H51.6738ZM49.6798 42.5761H51.0152L50.3505 41.0847L49.6798 42.5761Z" fill="#DFF7DA"/>
<path d="M56.6797 44.054V39.8555H57.3794V44.054H56.6797Z" fill="#DFF7DA"/>
<path d="M63.5861 42.4246V44.054H62.2773V39.8584H64.3969C64.9261 39.8334 65.447 39.9697 65.8504 40.2386C66.0158 40.3511 66.148 40.4902 66.238 40.6465C66.328 40.8027 66.3736 40.9724 66.3716 41.1438C66.3661 41.397 66.2676 41.6436 66.0878 41.8543C65.868 42.103 65.5378 42.2788 65.1613 42.3477L66.4758 44.054H64.947L63.7367 42.4246H63.5861ZM63.5861 40.6369V41.6461H64.3969C64.4832 41.654 64.5707 41.6466 64.6529 41.6244C64.735 41.6022 64.8098 41.5659 64.8715 41.518C64.9332 41.4702 64.9804 41.4122 65.0095 41.3482C65.0386 41.2841 65.0489 41.2158 65.0397 41.1483C65.0462 41.0129 64.9837 40.8811 64.8659 40.7817C64.8045 40.7338 64.7312 40.6963 64.6505 40.6714C64.5699 40.6465 64.4835 40.6348 64.3969 40.6369H63.5861Z" fill="#DFF7DA"/>
<path d="M79.0064 40.6522C78.8574 40.6466 78.711 40.6828 78.5962 40.7537C78.5414 40.7891 78.4984 40.8334 78.4706 40.8832C78.4427 40.933 78.4308 40.9869 78.4357 41.0407C78.4325 41.0956 78.444 41.1504 78.4695 41.2019C78.4951 41.2535 78.5341 41.3007 78.5843 41.341C78.6929 41.4204 78.8254 41.4795 78.9708 41.5132L79.5058 41.6324C79.7074 41.6675 79.906 41.7117 80.1003 41.7649C80.2861 41.8144 80.4636 41.8796 80.6294 41.9592C80.7958 42.0431 80.9308 42.1571 81.0218 42.2904C81.127 42.4479 81.1781 42.6224 81.1704 42.7982C81.1664 42.969 81.1109 43.137 81.0081 43.2898C80.9052 43.4427 80.7575 43.5764 80.5759 43.6813C80.1558 43.9388 79.6218 44.071 79.0778 44.0522C78.5417 44.0691 78.0138 43.9508 77.5797 43.7166C77.3853 43.6064 77.2297 43.4629 77.1262 43.2984C77.0227 43.1338 76.9743 42.9531 76.9852 42.7717H78.412C78.4536 43.0984 78.6735 43.2618 79.0897 43.2618C79.2556 43.2696 79.4193 43.2301 79.5474 43.1514C79.6001 43.1139 79.6415 43.0685 79.6692 43.0183C79.6968 42.9681 79.71 42.9142 79.7079 42.86C79.7114 42.8078 79.6999 42.7556 79.6743 42.7069C79.6487 42.6582 79.6095 42.614 79.5593 42.5774C79.4496 42.4981 79.3176 42.4378 79.1729 42.4007C78.9978 42.3533 78.8192 42.3135 78.6379 42.2815C78.4417 42.2418 78.2455 42.1976 78.0434 42.1447C77.8586 42.0933 77.6814 42.0282 77.5143 41.9504C77.3486 41.8676 77.2137 41.7552 77.1219 41.6236C77.0173 41.4659 76.9663 41.2915 76.9733 41.1158C76.9672 40.9393 77.018 40.7642 77.1214 40.6052C77.2248 40.4462 77.3778 40.3079 77.5678 40.2017C77.9858 39.9631 78.5034 39.8411 79.0302 39.8573C79.5407 39.84 80.0452 39.9453 80.4689 40.1576C80.6637 40.2685 80.8195 40.4128 80.923 40.5781C81.0266 40.7434 81.0747 40.9248 81.0634 41.107H79.6069C79.5986 40.9798 79.529 40.8591 79.4107 40.767C79.357 40.7288 79.2935 40.699 79.2241 40.6793C79.1547 40.6596 79.0807 40.6504 79.0064 40.6522Z" fill="#DFF7DA"/>
<path d="M89.1486 44.0549L88.9164 43.3544H87.4L87.1678 44.0549H86.0703L87.5548 39.8564H88.8071L90.2688 44.0549H89.1486ZM87.6595 42.5771H88.6568L88.1559 41.0857L87.6595 42.5771Z" fill="#DFF7DA"/>
<path d="M95.166 39.8555H96.1018V43.2795H97.2653V44.054H95.166V39.8555Z" fill="#DFF7DA"/>
<path d="M102.978 43.4571C102.456 43.0538 102.164 42.5141 102.164 41.9522C102.164 41.3903 102.456 40.8506 102.978 40.4473C103.516 40.0672 104.227 39.8555 104.967 39.8555C105.706 39.8555 106.417 40.0672 106.955 40.4473C107.473 40.8522 107.762 41.3913 107.762 41.9522C107.762 42.5131 107.473 43.0523 106.955 43.4571C106.419 43.8402 105.707 44.054 104.967 44.054C104.226 44.054 103.514 43.8402 102.978 43.4571ZM106.017 42.8074C106.269 42.5616 106.406 42.2602 106.406 41.95C106.406 41.6398 106.269 41.3383 106.017 41.0926C105.734 40.8881 105.356 40.7739 104.964 40.7739C104.571 40.7739 104.193 40.8881 103.91 41.0926C103.654 41.3371 103.515 41.639 103.515 41.95C103.515 42.2609 103.654 42.5629 103.91 42.8074C104.192 43.0139 104.57 43.1296 104.964 43.1296C105.357 43.1296 105.735 43.0139 106.017 42.8074Z" fill="#DFF7DA"/>
<path d="M115.025 39.8555H116.159V44.054H115.025L113.12 41.4101V44.054H111.961V39.8555H113.1L115.005 42.4993L115.025 39.8555Z" fill="#DFF7DA"/>
<path d="M66.2032 1.28802C68.1796 0.537301 70.3953 0.467721 72.4254 1.09261C73.4391 1.40452 74.3965 1.84816 75.2668 2.40937C76.0861 2.91187 76.7809 3.40972 77.4446 3.80521C77.8438 4.0332 78.2327 4.24722 78.606 4.43333C78.9794 4.61944 79.3475 4.74507 79.7157 4.89861C80.4876 5.14305 81.2906 5.29937 82.106 5.36389C83.7648 5.48909 85.432 5.23788 86.9542 4.6334C87.0268 4.77298 86.8816 5.09869 87.1667 5.05216C88.2971 4.82417 88.4682 5.01958 88.6497 5.3034C88.6964 5.36854 88.4941 5.47556 88.3282 5.56862C88.1623 5.66167 88.0119 5.7082 88.1934 5.71285C87.3793 6.14091 85.8601 6.6155 86.8297 6.49918C87.1581 6.46794 87.4777 6.38445 87.7734 6.2526C88.0647 6.10311 88.3882 6.0111 88.7223 5.98273C89.1423 6.0246 88.6808 6.54571 89.1008 6.58759C89.5109 6.37511 89.9073 6.1421 90.2882 5.88966C90.6823 5.81522 90.2882 6.45733 90.5941 6.25725C91.7863 5.60959 92.7749 4.70002 93.4667 3.61443C93.5393 3.6563 93.6534 3.61445 93.7208 3.67029C93.7882 3.72612 93.8037 3.79126 93.6067 4.10765C92.1161 6.01148 90.0251 7.47177 87.6024 8.3009C85.1797 9.13002 82.5361 9.29009 80.0112 8.76047C79.1442 8.57469 78.3038 8.29991 77.5068 7.94157C76.745 7.59881 76.0211 7.19219 75.3446 6.72717C74.3208 5.95976 73.2263 5.27178 72.0728 4.67063C71.1063 4.25068 70.0316 4.07227 68.9617 4.15417C67.9082 4.23129 66.8993 4.56956 66.0476 5.13125C65.1817 5.69636 64.4983 6.45735 64.0669 7.33668C63.678 8.11836 63.5224 7.43907 63.6521 6.66205C63.6158 6.9133 63.3721 6.81557 63.3513 7.07613C63.1232 7.01099 62.8743 6.341 63.5276 5.37786C63.3409 5.60032 63.1678 5.83175 63.0091 6.07113C62.7861 6.28051 62.7861 5.9641 62.6358 5.88501C62.7965 5.6291 62.978 5.38717 62.9054 5.34529L62.6202 5.17314C62.3682 5.5162 62.1446 5.87543 61.9513 6.24794C62.0913 5.96412 62.2625 5.6989 62.1899 5.66168L61.8891 5.50813C62.1587 4.8893 62.9573 4.21 63.4187 3.71681L63.2373 3.55397C62.5894 4.07818 62.0611 4.71024 61.6817 5.4151C61.7906 5.0894 61.7232 5.04752 61.578 4.94981C62.1224 4.01925 63.0765 3.40043 63.8335 2.59549C63.5244 2.80704 63.23 3.03544 62.9521 3.27944C63.2245 2.77491 63.6721 2.36341 64.2276 2.10692C64.8627 1.79062 65.5231 1.51691 66.2032 1.28802Z" fill="#DFF7DA"/>
<path d="M66.2033 54.4697C68.1797 53.7192 70.3954 53.6497 72.4255 54.2743C73.4393 54.5861 74.3966 55.0296 75.2669 55.5905C76.0862 56.0928 76.781 56.5905 77.4447 56.9858C77.844 57.2137 78.2328 57.4509 78.6062 57.6137C78.9795 57.7764 79.3477 57.9253 79.7158 58.0788C80.4877 58.3231 81.2908 58.4794 82.1061 58.5438C83.765 58.6718 85.433 58.4206 86.9543 57.8137C87.0269 57.9532 86.8817 58.2788 87.1669 58.2322C88.2972 58.009 88.4683 58.1997 88.6498 58.4834C88.6965 58.5485 88.4943 58.6601 88.3283 58.7485C88.1624 58.8369 88.012 58.888 88.1935 58.8927C87.3794 59.3252 85.8602 59.7949 86.8298 59.6787C87.1582 59.6474 87.4778 59.564 87.7735 59.4322C88.0659 59.2849 88.3889 59.1931 88.7224 59.1624C89.1424 59.2043 88.6809 59.7252 89.1009 59.767C89.511 59.5546 89.9074 59.3217 90.2883 59.0694C90.6824 58.995 90.2883 59.6368 90.5942 59.4415C91.7855 58.791 92.7737 57.8806 93.4668 56.7951C93.5394 56.837 93.6535 56.7951 93.7209 56.8509C93.7883 56.9067 93.8038 56.9718 93.6068 57.2928C92.1153 59.1948 90.0242 60.6538 87.6018 61.4825C85.1794 62.3112 82.5362 62.4718 80.0114 61.9437C79.1436 61.7601 78.3029 61.4853 77.5069 61.1251C76.7451 60.7825 76.0212 60.376 75.3447 59.9112C74.3197 59.1457 73.2253 58.4581 72.0729 57.8555C71.1068 57.4351 70.0314 57.2583 68.9618 57.3439C67.9082 57.4172 66.8987 57.754 66.0477 58.316C65.1819 58.8808 64.4984 59.6415 64.067 60.5205C63.6781 61.3018 63.5226 60.6228 63.6522 59.8461C63.6159 60.1019 63.3722 59.9996 63.3515 60.26C63.1233 60.1949 62.8744 59.5252 63.5277 58.5625C63.341 58.7864 63.1679 59.0193 63.0092 59.2601C62.7863 59.4647 62.7863 59.1485 62.6359 59.0694C62.7966 58.8136 62.9781 58.5718 62.9055 58.5299L62.6203 58.3578C62.3683 58.7007 62.1447 59.0598 61.9515 59.4322C62.0915 59.1531 62.2626 58.8834 62.19 58.8462L61.8892 58.6973C62.1589 58.0788 62.9574 57.3951 63.4189 56.9067L63.2374 56.7393C62.5895 57.2633 62.0613 57.8951 61.6818 58.5997C61.7907 58.2741 61.7233 58.2322 61.5781 58.1346C62.1226 57.2044 63.0766 56.5858 63.8337 55.7812C63.5245 55.9927 63.2301 56.221 62.9522 56.4649C63.2258 55.9614 63.6731 55.5503 64.2277 55.2929C64.8627 54.9751 65.523 54.6999 66.2033 54.4697Z" fill="#DFF7DA"/>
</svg>
