<svg width="82" height="29" viewBox="0 0 82 29" fill="none" xmlns="http://www.w3.org/2000/svg">
<path d="M54.4759 28.1842H51.2861V27.2664H51.2407C50.0503 28.0524 48.6464 28.4521 47.2204 28.411C44.3203 28.411 40.8828 27.3362 40.8828 23.759C40.8828 19.2222 46.8156 18.8558 50.5009 18.8558C50.7242 18.8558 51.3524 18.8558 51.6246 18.8802L51.2757 18.5591C51.0942 16.9992 49.8378 16.3815 47.9707 16.3815C46.4944 16.3232 45.0408 16.7578 43.8387 17.6169L41.7692 15.488C43.5429 14.1375 45.7287 13.4409 47.9568 13.5163C51.0977 13.5163 54.4724 14.7307 54.4724 18.9256L54.4759 28.1842ZM51.6002 21.6756C51.3769 21.6512 50.815 21.6512 50.6335 21.6512C50.0053 21.6512 49.2655 21.6512 48.5012 21.6756C47.7459 21.7079 46.9944 21.8001 46.2537 21.9513C44.8159 22.2689 44.0516 22.8203 44.0516 23.759C44.0516 25.2283 45.9396 25.5494 47.2204 25.5494C48.5012 25.5494 51.2861 25.3888 51.2861 23.7381V21.9932L51.6002 21.6756Z" fill="#FFD700"/>
<path d="M67.7081 26.348C66.3819 27.7684 64.9162 28.3896 63.3737 28.3896C60.2956 28.3896 58.7216 26.6446 58.7216 23.4374V16.7718L58.8996 16.4507H56.9453V13.7461H58.8996L58.7216 13.425V11.4567L61.9114 9.69434V13.4285L61.7334 13.7496H66.1586V16.4542H61.7334L61.9114 16.7753V23.406C61.9114 24.7566 62.5396 25.5 63.5063 25.5C64.295 25.5 64.9441 25.151 65.7328 24.3064L67.7081 26.348Z" fill="#FFD700"/>
<path d="M75.7731 28.4108C73.282 28.4042 70.8848 27.4598 69.0586 25.7655L71.2817 23.4936C71.8395 24.1215 72.5197 24.6286 73.2807 24.9839C74.0417 25.3392 74.8673 25.5351 75.7068 25.5596C78.1776 25.5596 78.7849 24.6173 78.7849 24.0694C78.7849 23.5878 78.6069 23.1062 76.7189 22.6246C76.4257 22.5548 74.5168 22.0279 74.2027 21.9267C71.7319 21.2845 69.4844 20.255 69.4844 17.7562C69.4844 15.3971 71.6411 13.4951 75.6161 13.4951C78.2474 13.4951 80.111 14.228 81.7303 15.7635L79.5282 17.9866C79.0185 17.4658 78.4099 17.0521 77.7381 16.7698C77.0662 16.4875 76.3448 16.3424 75.6161 16.3429C73.236 16.3429 72.6951 17.3061 72.6951 17.6969C72.6951 18.36 73.4838 18.6113 75.3927 19.1173C75.7068 19.208 77.3471 19.6896 77.6856 19.7594C80.6066 20.5377 81.999 21.8883 81.999 23.9473C81.999 26.303 80.0901 28.4108 75.7731 28.4108Z" fill="#FFD700"/>
<path d="M46.263 2.17213C40.1173 -2.1311 29.3378 -0.362777 24.6967 10.386C22.1533 16.2724 21.4277 25.314 10.5156 28.2729C13.525 28.247 30.0229 30.0301 35.8721 20.4127C39.9423 13.7171 36.2699 2.63504 46.263 2.17213Z" fill="url(#paint0_radial_477_776)"/>
<path d="M0 11.9745C9.90635 -2.5507 30.0209 -3.81836 35.4737 9.14495C40.6265 21.382 30.4331 30.9328 10.429 28.0711C18.9478 27.6297 27.6193 23.2325 24.8146 14.7192C22.402 7.40192 11.8203 5.14579 0 11.9745Z" fill="url(#paint1_linear_477_776)"/>
<defs>
<radialGradient id="paint0_radial_477_776" cx="0" cy="0" r="1" gradientUnits="userSpaceOnUse" gradientTransform="translate(31.2723 14.0003) rotate(-1.15195) scale(23.8438 23.9724)">
<stop stop-color="#8D8D8D"/>
<stop offset="0.15" stop-color="#A7A7A7"/>
<stop offset="0.39" stop-color="#C7C7C7"/>
<stop offset="0.61" stop-color="#DFDFDF"/>
<stop offset="0.82" stop-color="#EDEDED"/>
<stop offset="1" stop-color="#F2F2F2"/>
</radialGradient>
<linearGradient id="paint1_linear_477_776" x1="-0.400266" y1="8.43332" x2="43.4676" y2="22.5283" gradientUnits="userSpaceOnUse">
<stop offset="0.22" stop-color="#FFD700"/>
<stop offset="0.43" stop-color="#FFD700"/>
<stop offset="0.49" stop-color="#FFD700"/>
<stop offset="0.58" stop-color="#FFD700"/>
<stop offset="0.68" stop-color="#FFD700"/>
<stop offset="0.79" stop-color="#FFD700"/>
<stop offset="1" stop-color="#0D3375"/>
</linearGradient>
</defs>
</svg>
