<svg width="148" height="59" viewBox="0 0 148 59" fill="none" xmlns="http://www.w3.org/2000/svg">
<path d="M25.7955 57.5676C25.3227 57.0954 25.0586 56.4659 25.0586 55.811C25.0586 55.156 25.3227 54.5265 25.7955 54.0544C26.0338 53.8283 26.3168 53.6504 26.628 53.5312C26.9391 53.4119 27.2719 53.3536 27.6068 53.3598C28.1201 53.3508 28.6243 53.4903 29.0538 53.7603C29.476 54.025 29.7938 54.4176 29.9568 54.8756H28.7422C28.6379 54.6734 28.4732 54.5056 28.2691 54.3936C28.065 54.2817 27.8307 54.2306 27.5963 54.247C27.3915 54.2401 27.1876 54.2745 26.9975 54.3478C26.8074 54.4211 26.6354 54.5319 26.4925 54.6729C26.2189 54.995 26.0695 55.3979 26.0695 55.8135C26.0695 56.2292 26.2189 56.6321 26.4925 56.9542C26.6354 57.0951 26.8074 57.2058 26.9975 57.2792C27.1876 57.3525 27.3915 57.3869 27.5963 57.38C27.8305 57.395 28.0642 57.3434 28.268 57.2316C28.4718 57.1198 28.6368 56.9527 28.7422 56.7514H29.9463C29.7845 57.2087 29.4662 57.6 29.0432 57.8616C28.6122 58.1278 28.1087 58.2654 27.5963 58.257C27.2632 58.2643 26.9321 58.2069 26.6227 58.0885C26.3132 57.97 26.0319 57.7928 25.7955 57.5676Z" fill="#DFF7DA"/>
<path d="M38.0013 58.2569C37.6798 58.2643 37.3603 58.2066 37.0617 58.0875C36.7632 57.9683 36.4918 57.7901 36.2639 57.5635C35.8089 57.0919 35.5547 56.4624 35.5547 55.8073C35.5547 55.1523 35.8089 54.5227 36.2639 54.0511C36.7341 53.6069 37.3567 53.3594 38.0038 53.3594C38.6509 53.3594 39.2735 53.6069 39.7437 54.0511C40.1987 54.5227 40.4529 55.1523 40.4529 55.8073C40.4529 56.4624 40.1987 57.0919 39.7437 57.5635C39.5151 57.7905 39.2428 57.969 38.9434 58.0881C38.644 58.2073 38.3235 58.2647 38.0013 58.2569ZM39.0599 56.9461C39.3392 56.6322 39.4846 56.2218 39.4651 55.8023C39.4846 55.3858 39.339 54.9785 39.0599 54.6686C38.9235 54.5271 38.7586 54.416 38.5761 54.3427C38.3937 54.2695 38.1978 54.2356 38.0013 54.2434C37.8049 54.2366 37.6093 54.2708 37.4269 54.3441C37.2446 54.4173 37.0796 54.5278 36.9426 54.6686C36.6802 54.9901 36.5368 55.3924 36.5368 55.8073C36.5368 56.2223 36.6802 56.6245 36.9426 56.9461C37.0796 57.0868 37.2446 57.1974 37.4269 57.2706C37.6093 57.3438 37.8049 57.3781 38.0013 57.3712C38.1978 57.379 38.3937 57.3452 38.5761 57.2719C38.7586 57.1987 38.9235 57.0876 39.0599 56.9461Z" fill="#DFF7DA"/>
<path d="M46.0508 58.2524V53.3594H49.5495V54.1202H47.1931V55.4125H48.9873V56.1733H47.1931V58.2576L46.0508 58.2524Z" fill="#DFF7DA"/>
<path d="M54.4473 58.2524V53.3594H57.946V54.1202H55.5916V55.4125H57.3889V56.1733H55.5916V58.2576L54.4473 58.2524Z" fill="#DFF7DA"/>
<path d="M66.3215 53.3594V54.1146H64.5016V55.3973H66.1318V56.1525H64.5221V57.5024H66.342V58.2576H63.543V53.3594H66.3215Z" fill="#DFF7DA"/>
<path d="M74.7404 53.3594V54.1146H72.9105V55.3973H74.5188V56.1525H72.9002V57.5024H74.7301V58.2576H71.9414V53.3594H74.7404Z" fill="#DFF7DA"/>
<path d="M89.0263 54.1222C88.8547 54.1158 88.6862 54.1677 88.5487 54.2692C88.488 54.3191 88.4397 54.382 88.4077 54.4533C88.3756 54.5245 88.3606 54.6021 88.3639 54.68C88.3547 54.8279 88.4045 54.9735 88.5025 55.0857C88.5974 55.1921 88.7199 55.271 88.8568 55.3139C89.0169 55.3693 89.1797 55.4167 89.3446 55.4558C89.5192 55.4964 89.6938 55.5471 89.8581 55.6029C90.0259 55.6619 90.1875 55.7366 90.3408 55.8261C90.4951 55.9162 90.6199 56.0482 90.7003 56.2064C90.7959 56.3949 90.8419 56.6042 90.8338 56.8149C90.835 57.0078 90.7932 57.1986 90.7116 57.3738C90.63 57.5491 90.5104 57.7045 90.3613 57.8291C90.0105 58.1246 89.5588 58.2769 89.0982 58.2551C88.6419 58.2778 88.1912 58.1473 87.8196 57.8849C87.6627 57.7664 87.537 57.6124 87.453 57.4359C87.369 57.2594 87.3292 57.0656 87.3369 56.8707H88.3639C88.3621 56.9646 88.3816 57.0577 88.421 57.1432C88.4604 57.2286 88.5187 57.3043 88.5916 57.3646C88.6645 57.4249 88.7501 57.4683 88.8422 57.4917C88.9343 57.515 89.0305 57.5177 89.1238 57.4995C89.3109 57.5078 89.4942 57.4463 89.6373 57.3271C89.7029 57.2707 89.7546 57.2003 89.7885 57.1212C89.8223 57.0421 89.8373 56.9564 89.8325 56.8707C89.8337 56.7805 89.8106 56.6916 89.7655 56.6131C89.7203 56.5347 89.6548 56.4695 89.5757 56.4244C89.3851 56.3059 89.1748 56.2218 88.9544 56.176C88.713 56.1202 88.4409 56.0542 88.2201 55.9782C87.9785 55.9005 87.7635 55.7583 87.5988 55.5674C87.4182 55.3514 87.3266 55.0763 87.342 54.7966C87.335 54.5979 87.3743 54.4004 87.4572 54.2192C87.54 54.038 87.664 53.8781 87.8196 53.752C88.1706 53.4818 88.6073 53.3435 89.0519 53.3615C89.4825 53.3416 89.908 53.4609 90.2638 53.7013C90.4201 53.8222 90.5473 53.9759 90.6361 54.1513C90.7249 54.3267 90.7731 54.5194 90.7773 54.7155H89.7041C89.6952 54.5494 89.6216 54.3931 89.4987 54.2794C89.3661 54.1714 89.198 54.1154 89.0263 54.1222Z" fill="#DFF7DA"/>
<path d="M99.6165 53.3594H100.63V58.2576H99.6165V56.1821H97.4506V58.2576H96.4316V53.3594H97.4506V55.4038H99.6165V53.3594Z" fill="#DFF7DA"/>
<path d="M108.675 58.2569C108.354 58.2643 108.034 58.2066 107.736 58.0875C107.437 57.9683 107.166 57.7901 106.938 57.5635C106.483 57.0919 106.229 56.4624 106.229 55.8073C106.229 55.1523 106.483 54.5227 106.938 54.0511C107.408 53.6069 108.031 53.3594 108.678 53.3594C109.325 53.3594 109.947 53.6069 110.418 54.0511C110.873 54.5227 111.127 55.1523 111.127 55.8073C111.127 56.4624 110.873 57.0919 110.418 57.5635C110.189 57.7905 109.917 57.969 109.617 58.0881C109.318 58.2073 108.997 58.2647 108.675 58.2569ZM109.734 56.9461C110.013 56.6322 110.158 56.2218 110.139 55.8023C110.158 55.3858 110.013 54.9785 109.734 54.6686C109.597 54.5271 109.432 54.416 109.25 54.3427C109.068 54.2695 108.872 54.2356 108.675 54.2434C108.479 54.2366 108.283 54.2708 108.101 54.3441C107.918 54.4173 107.753 54.5278 107.616 54.6686C107.354 54.9901 107.211 55.3924 107.211 55.8073C107.211 56.2223 107.354 56.6245 107.616 56.9461C107.753 57.0868 107.918 57.1974 108.101 57.2706C108.283 57.3438 108.479 57.3781 108.675 57.3712C108.872 57.379 109.068 57.3452 109.25 57.2719C109.432 57.1987 109.597 57.0876 109.734 56.9461Z" fill="#DFF7DA"/>
<path d="M119.858 55.7923C119.713 55.9614 119.527 56.0889 119.319 56.1624C119.053 56.2571 118.773 56.303 118.492 56.2979H117.694V58.2576H116.725V53.3635H118.492C118.956 53.3316 119.414 53.4847 119.771 53.7909C119.913 53.9143 120.026 54.0677 120.104 54.2404C120.182 54.4132 120.223 54.6012 120.223 54.7916C120.22 55.1589 120.09 55.5132 119.858 55.7923ZM117.694 55.5369H118.492C118.593 55.5442 118.694 55.5309 118.79 55.4978C118.886 55.4647 118.974 55.4124 119.05 55.3441C119.172 55.1992 119.239 55.0143 119.239 54.8229C119.239 54.6315 119.172 54.4465 119.05 54.3017C118.974 54.2333 118.886 54.1811 118.79 54.148C118.694 54.1149 118.593 54.1016 118.492 54.1088H117.694V55.5369Z" fill="#DFF7DA"/>
<path d="M0.845078 41.728C0.597953 41.2558 0.51198 40.717 0.600031 40.1924C0.67248 39.3865 0.812741 38.5881 1.01933 37.8053C1.24804 36.9162 1.56388 35.9894 1.8797 35.0142C2.19553 34.0389 2.57124 33.1174 2.9143 32.2283C3.25735 31.3393 3.57863 30.5472 3.87268 29.8413L4.50436 28.3002C4.65683 27.9823 4.85285 27.5297 5.10333 26.9423C5.35382 26.355 5.64786 25.7138 5.91468 25.0187C6.1815 24.3236 6.50823 23.5908 6.83495 22.8203C7.16167 22.0497 7.46661 21.3169 7.75521 20.611C8.04381 19.9051 8.29974 19.2639 8.56656 18.6874C8.83338 18.1108 9.0131 17.6528 9.16557 17.3079C9.63931 17.1624 9.95513 17.1786 10.1076 17.3564C10.1888 17.4933 10.2417 17.6447 10.2632 17.802C10.2847 17.9593 10.2744 18.1192 10.2328 18.2725C10.1416 18.8049 9.99002 19.3255 9.78089 19.8243C9.54674 20.4332 9.26902 21.0852 8.95864 21.7803C8.64826 22.4754 8.32151 23.1867 7.9839 23.9357C7.64629 24.6846 7.34681 25.3474 7.07999 25.9994C6.83242 26.5769 6.62679 27.1711 6.46467 27.7775C6.33222 28.1916 6.29317 28.6294 6.3503 29.06C6.79757 29.1033 7.24805 29.1033 7.69532 29.06C8.20173 29.0169 8.71903 28.9522 9.24723 28.8714C9.77542 28.7906 10.2982 28.6882 10.8209 28.5804C11.3437 28.4727 11.7902 28.3864 12.1768 28.3218C13.8102 28.1037 15.4004 27.6404 16.8925 26.9477C18.0206 26.3865 19.0225 25.6058 19.8384 24.6523C20.6795 23.6378 21.3724 22.5114 21.8968 21.3061C22.4812 20.0021 23.1492 18.4844 23.9006 16.7529C24.0967 16.3919 24.2709 16.2141 24.4452 16.2896C24.5347 16.3348 24.6138 16.3979 24.6775 16.4749C24.7412 16.5518 24.7882 16.641 24.8155 16.7368C24.9175 17.0009 24.9887 17.2757 25.0278 17.5558C25.0676 17.7677 25.0676 17.9851 25.0278 18.197C24.9707 18.339 24.9052 18.4775 24.8318 18.6119C24.7229 18.8275 24.6031 19.0592 24.4724 19.3016C24.3417 19.5441 24.2273 19.7704 24.1184 19.9752C24.0463 20.1047 23.9808 20.2378 23.9224 20.3739C23.8577 20.5148 23.8048 20.6608 23.7645 20.8104C23.6992 21.0097 23.6229 21.2307 23.5358 21.4678C23.4487 21.7049 23.3724 21.9204 23.3071 22.1251C23.2576 22.2665 23.2158 22.4104 23.1819 22.5562C23.35 22.6197 23.4997 22.7233 23.6175 22.858C23.7543 22.976 23.8591 23.1261 23.9224 23.2944C23.9658 23.7352 23.8394 24.1759 23.5685 24.5284C23.2402 25.0277 22.8763 25.5031 22.4794 25.9509L21.1834 27.395C20.8191 27.7785 20.5277 28.2239 20.3231 28.7097C19.454 30.806 18.6925 32.9443 18.0415 35.1165C17.3983 37.288 16.9267 39.5058 16.6311 41.7496C16.5524 41.8715 16.4551 41.9806 16.3425 42.0729C16.2858 42.1249 16.2129 42.1563 16.1358 42.1622C16.0587 42.1681 15.9819 42.148 15.9178 42.1052C15.8834 41.4564 15.9218 40.8059 16.0321 40.1654C16.1519 39.341 16.3098 38.4465 16.5004 37.4712C16.691 36.496 16.9143 35.5153 17.1484 34.5076L17.8128 31.738C18.0197 30.8938 18.1885 30.1933 18.3192 29.6365C18.4085 29.3348 18.4615 29.0238 18.4771 28.7097C17.899 28.6191 17.3115 28.6028 16.7291 28.6612C16.0158 28.7151 15.2371 28.8121 14.3985 28.9468C13.5599 29.0815 12.6832 29.254 11.7739 29.448C10.8645 29.6419 9.98781 29.8467 9.13289 30.073C8.27798 30.2993 7.4993 30.5094 6.75329 30.7142C6.00728 30.919 5.41372 31.0914 4.93998 31.253C4.55461 32.1213 4.25197 33.0233 4.03604 33.9472C3.79644 34.9207 3.55323 35.8978 3.30638 36.8785C3.05589 37.8646 2.76184 38.8076 2.47868 39.7182C2.20043 40.578 1.79685 41.3931 1.2807 42.1376C1.20412 42.0916 1.13293 42.0374 1.06836 41.9759C0.979129 41.9076 0.903417 41.8236 0.845078 41.728Z" fill="#DFF7DA"/>
<path d="M23.46 41.7842C23.0649 41.6635 22.704 41.4574 22.4051 41.1817C22.1063 40.9061 21.8774 40.5682 21.7362 40.1943C21.4994 39.4174 21.4994 38.5917 21.7362 37.8148C22.0167 36.86 22.4371 35.9482 22.9848 35.1067C23.5583 34.1935 24.2186 33.333 24.9572 32.5364C25.6256 31.8121 26.3657 31.1519 27.1672 30.565C27.7084 30.1185 28.3583 29.8105 29.0568 29.6693C30.13 29.4727 31.2389 29.5644 32.2612 29.9343C32.9734 30.2206 33.5446 30.7572 33.8579 31.4341C34.1492 32.1614 34.2275 32.9513 34.0845 33.7182C33.9422 34.6397 33.6495 35.5339 33.217 36.368C32.7431 37.2802 32.159 38.1358 31.4767 38.9171C30.7945 39.712 29.9962 40.4081 29.1065 40.9839C28.2732 41.5274 27.3332 41.9024 26.344 42.0863C25.3724 42.2537 24.371 42.1488 23.46 41.7842ZM23.1008 39.9876C23.1345 40.264 23.2602 40.5226 23.4592 40.725C23.6583 40.9274 23.9201 41.0629 24.2058 41.1112C24.8964 41.1593 25.5869 41.0158 26.1948 40.6978C27.0504 40.2903 27.8502 39.783 28.5761 39.1874C29.4024 38.5334 30.166 37.8097 30.8579 37.0252C31.511 36.3008 32.0849 35.5141 32.5706 34.6774C32.9695 34.0553 33.1958 33.3456 33.2281 32.6159C33.2276 32.3345 33.1437 32.059 32.9862 31.8216C32.8287 31.5842 32.6041 31.3947 32.3386 31.2751C31.7585 30.9677 30.7916 30.9147 29.4325 31.1002C29.1231 31.3758 28.7308 31.7044 28.2501 32.0965C27.7694 32.4887 27.2667 32.9074 26.7528 33.3684C26.239 33.8295 25.7307 34.333 25.2224 34.8682C24.7368 35.3819 24.2986 35.9351 23.913 36.5217C23.554 37.0567 23.282 37.6411 23.1064 38.2547C22.9415 38.8267 22.9396 39.4306 23.1008 40.0035V39.9876Z" fill="#DFF7DA"/>
<path d="M52.7504 40.4339C52.7169 40.0666 52.7385 39.6963 52.8143 39.3358C52.8899 38.9794 52.9949 38.6304 53.1284 38.2926C53.2668 37.9577 53.3999 37.6448 53.5276 37.3647C53.6554 37.0847 53.7831 36.7498 54.0599 36.1679C54.3367 35.5859 54.5923 34.9874 54.9117 34.356C55.2311 33.7246 55.5078 33.1317 55.7846 32.5772L56.3542 31.4187V30.7159C56.1413 30.6061 55.7101 30.7543 55.0554 31.1606C54.2613 31.6569 53.5002 32.2071 52.7771 32.8077C51.9094 33.516 50.9938 34.3011 50.025 35.1741C49.0562 36.0471 48.1406 36.8761 47.2835 37.6722C46.4265 38.4683 45.6866 39.1766 45.0531 39.797C44.4196 40.4174 43.9885 40.8237 43.8501 41.0213C43.3869 41.1696 43.0835 41.0708 42.9451 40.7084C42.7978 40.224 42.7596 39.7114 42.8333 39.2095C42.9122 38.4819 43.0402 37.7609 43.2166 37.0518C43.4082 36.2557 43.5999 35.5035 43.8022 34.8008C44.0044 34.098 44.1801 33.4886 44.3345 32.9889C44.4403 32.7276 44.5102 32.4522 44.5421 32.1708C44.3219 32.0972 44.0889 32.0738 43.8591 32.1022C43.6293 32.1307 43.4083 32.2103 43.2113 32.3356C42.6827 32.6467 42.2019 33.0371 41.7847 33.494C41.2589 34.0556 40.7732 34.6556 40.3314 35.2894L38.8729 37.3483C38.3902 38.0291 37.9254 38.6806 37.4782 39.3029C37.1016 39.8485 36.6775 40.3575 36.2113 40.8237C35.9081 41.1583 35.5183 41.3965 35.0881 41.51C34.9074 41.5365 34.7231 41.5035 34.5616 41.4158C34.4001 41.3281 34.2695 41.19 34.1885 41.0213C34.1603 40.9716 34.1491 40.9137 34.1565 40.8566C34.153 40.7891 34.1639 40.7216 34.1885 40.659C34.2949 40.4448 34.4546 40.1099 34.6782 39.6323C34.9018 39.1546 35.1466 38.633 35.4234 38.0455C35.7002 37.4581 35.993 36.8432 36.3071 36.2008L37.2121 34.3725L37.9733 32.8242C38.1915 32.3685 38.3672 32.0281 38.5056 31.8085C38.644 31.5889 38.7558 31.3144 38.9474 30.9794C39.1391 30.6445 39.3253 30.3151 39.517 29.9967C39.7086 29.6782 39.9481 29.2994 40.2462 28.8382H41.0075C41.1531 29.2991 41.1304 29.7989 40.9436 30.2437C40.7478 30.6854 40.5201 31.1112 40.2622 31.5175C40.0106 31.9076 39.7882 32.3169 39.5968 32.7419C39.5099 32.9451 39.465 33.1648 39.465 33.387C39.465 33.6091 39.5099 33.8288 39.5968 34.0321C41.412 32.385 42.7907 31.1551 43.7915 30.3755C44.4079 29.815 45.1092 29.3624 45.8676 29.0359C46.2668 28.9261 46.4531 29.0908 46.4371 29.5245C46.3924 30.1185 46.3017 30.7079 46.1657 31.2869C46.006 32.0281 45.8516 32.8736 45.6919 33.818C45.5345 34.7246 45.5183 35.6513 45.644 36.5631H46.0219C46.1497 36.4753 46.3626 36.3106 46.6554 36.0745L47.6242 35.2894C47.9702 35.0039 48.2949 34.7403 48.6037 34.5043C48.9124 34.2682 49.136 34.1035 49.2531 34.0156C49.4873 33.818 49.8227 33.5489 50.2645 33.1975L51.6113 32.1379C52.0637 31.7755 52.4736 31.4626 52.8463 31.1881C53.2189 30.9136 53.4531 30.7489 53.5596 30.683C53.666 30.6171 53.8257 30.4853 54.0919 30.2767C54.358 30.0681 54.6934 29.8484 55.0394 29.6068C55.3854 29.3653 55.7208 29.1457 56.0402 28.937C56.3596 28.7284 56.5725 28.5746 56.7322 28.4648C56.9875 28.2651 57.3008 28.1606 57.6211 28.1684C57.8774 28.1845 58.1194 28.2957 58.3025 28.4813C58.4901 28.6875 58.6062 28.952 58.6326 29.2335C58.67 29.5922 58.6262 29.9549 58.5048 30.2931C57.9725 31.2704 57.4987 32.2312 57.0037 33.1646C56.5086 34.098 56.0508 35.0423 55.6409 35.9922C55.2298 36.9368 54.8916 37.9135 54.6295 38.913C54.3593 39.9576 54.2163 41.0329 54.2037 42.1139C54.1533 42.146 54.0952 42.163 54.036 42.163C53.9768 42.163 53.9187 42.146 53.8683 42.1139C53.7456 42.0444 53.6343 41.9554 53.5383 41.8504C53.3973 41.699 53.2691 41.5355 53.155 41.3618C52.9321 41.1019 52.7911 40.7783 52.7504 40.4339Z" fill="#DFF7DA"/>
<path d="M60.9016 41.8943C60.3152 41.7244 59.7959 41.3799 59.4144 40.9077C59.0776 40.4736 58.8475 39.9679 58.7423 39.4306C58.6315 38.8703 58.6147 38.2957 58.6928 37.73C58.7669 37.1534 58.8923 36.5843 59.0673 36.0294C59.721 35.339 60.4554 34.545 61.2706 33.6475C62.0914 32.7482 62.9562 31.8706 63.8761 31.004C64.7853 30.1477 65.7416 29.3416 66.7404 28.5894C67.6637 27.8833 68.6837 27.3107 69.7699 26.8888C69.8949 26.8096 70.0402 26.7676 70.1886 26.7676C70.3369 26.7676 70.4822 26.8096 70.6072 26.8888C70.8359 27.0875 70.991 27.356 71.0478 27.6518C71.141 28.0445 71.18 28.4479 71.1635 28.851C71.1533 29.2945 71.1146 29.7368 71.0478 30.1755C70.9899 30.5699 70.9034 30.9597 70.7889 31.3419C70.7241 31.598 70.612 31.8401 70.4585 32.0559C70.0149 32.4987 69.5014 32.8669 68.9382 33.1461L66.4319 34.4869C65.512 34.9775 64.5976 35.4789 63.6778 35.9967C62.8768 36.4361 62.1205 36.9508 61.4194 37.5338C60.9168 37.9149 60.5486 38.4433 60.3673 39.0436C60.2571 39.5396 60.5656 39.9975 61.2872 40.4063C62.1898 40.4877 63.0994 40.4492 63.9917 40.2918C65.0493 40.1283 66.129 39.9157 67.2306 39.6432C68.3323 39.3706 69.4009 39.0981 70.4254 38.7983C71.4499 38.4985 72.2927 38.2533 72.9482 38.1061L73.3393 38.4604C72.6995 39.2068 71.8922 39.7948 70.9817 40.1773C69.8462 40.7133 68.6623 41.1421 67.4454 41.4582C66.2339 41.7847 64.995 42.0018 63.7439 42.1068C62.7916 42.2252 61.8251 42.1529 60.9016 41.8943ZM68.7399 29.516C68.7399 29.516 68.5526 29.5814 68.2496 29.7885C67.9467 29.9956 67.5666 30.2627 67.1149 30.6006C66.6632 30.9386 66.1895 31.3038 65.6773 31.6908C65.165 32.0777 64.6913 32.4647 64.2672 32.8081C63.843 33.1515 63.485 33.4513 63.2041 33.702C62.9231 33.9528 62.7964 34.0727 62.8405 34.0727C63.2994 34.1281 63.7651 34.0777 64.2011 33.9255C64.8009 33.7491 65.382 33.5155 65.9361 33.2278C66.5337 32.9274 67.1097 32.5868 67.6602 32.2086C68.1364 31.8901 68.5712 31.5148 68.9547 31.0912C69.2208 30.8272 69.3929 30.4848 69.4449 30.1155C69.4505 29.8484 69.2136 29.6413 68.7399 29.516Z" fill="#DFF7DA"/>
<path d="M90.3677 40.4146C90.3332 40.048 90.3554 39.6782 90.4334 39.3183C90.5104 38.9617 90.6204 38.613 90.7619 38.2767C90.8988 37.9424 91.0357 37.6299 91.1671 37.3503C91.2985 37.0708 91.4299 36.7364 91.7146 36.1553C91.9993 35.5742 92.2621 34.9767 92.5961 34.3463C92.9301 33.7159 93.2094 33.1239 93.4886 32.5702C93.7678 32.0166 93.9649 31.6328 94.0744 31.4136V30.7119C93.8609 30.6023 93.4119 30.7503 92.7385 31.1559C91.9226 31.6527 91.1398 32.2021 90.3951 32.8005C89.5081 33.5076 88.5608 34.2915 87.5643 35.1631C86.5678 36.0347 85.6261 36.8624 84.7446 37.6573C83.8631 38.4522 83.102 39.1593 82.4505 39.7787C81.7989 40.3982 81.3882 40.8038 81.213 41.0012C80.7367 41.1492 80.4246 41.0505 80.2877 40.6887C80.1335 40.2057 80.0941 39.6932 80.1727 39.1922C80.2517 38.4658 80.3816 37.746 80.5615 37.0379C80.7586 36.243 80.9557 35.492 81.1637 34.7904C81.3718 34.0887 81.558 33.4802 81.7113 32.9814C81.8202 32.7204 81.892 32.4455 81.9248 32.1646C81.6984 32.091 81.4587 32.0677 81.2224 32.0961C80.986 32.1245 80.7586 32.204 80.556 32.329C80.0132 32.641 79.5189 33.0307 79.0886 33.4857C78.5479 34.0463 78.0483 34.6454 77.5939 35.2782L76.0937 37.3339L74.6646 39.2854C74.2739 39.8276 73.838 40.3355 73.3615 40.8038C73.0479 41.1358 72.6477 41.3732 72.2062 41.4891C72.0195 41.5159 71.8292 41.4832 71.6621 41.3956C71.495 41.3081 71.3597 41.17 71.2754 41.0012C71.2464 40.9516 71.2349 40.8937 71.2425 40.8367C71.2389 40.7693 71.2501 40.702 71.2754 40.6394C71.3849 40.4256 71.5547 40.0912 71.7791 39.6143C72.0036 39.1374 72.2609 38.6166 72.5457 38.0301C72.8304 37.4435 73.1315 36.8296 73.4546 36.1882C73.7776 35.5468 74.0952 34.9383 74.3854 34.3628L75.1683 32.8169C75.3928 32.3619 75.5735 32.0221 75.7159 31.8028C75.8582 31.5835 75.9732 31.3094 76.1703 30.975C76.3674 30.6406 76.5645 30.3118 76.7562 29.9938C76.9478 29.6759 77.1996 29.2976 77.5063 28.8372H78.2892C78.439 29.2973 78.4156 29.7964 78.2235 30.2405C78.0243 30.6825 77.7899 31.1078 77.5227 31.5122C77.2639 31.9017 77.0351 32.3104 76.8383 32.7347C76.7488 32.9376 76.7026 33.157 76.7026 33.3788C76.7026 33.6006 76.7488 33.82 76.8383 34.0229C78.7054 32.3784 80.1235 31.1505 81.1528 30.3721C81.7868 29.8124 82.5082 29.3606 83.2881 29.0345C83.6988 28.9249 83.8959 29.0893 83.874 29.5224C83.828 30.1155 83.7346 30.7039 83.5948 31.282C83.4305 32.0221 83.2717 32.8662 83.1075 33.8091C82.9456 34.7143 82.9289 35.6395 83.0582 36.55H83.447C83.5784 36.4623 83.7974 36.2978 84.0985 36.0621L85.095 35.2782C85.4509 34.9932 85.7904 34.73 86.1024 34.4943C86.4145 34.2586 86.65 34.0942 86.7705 34.0065C87.0114 33.8091 87.3563 33.5405 87.8107 33.1897C88.2652 32.8388 88.7306 32.488 89.196 32.1317C89.6614 31.7754 90.0885 31.4574 90.4663 31.1833C90.8441 30.9093 91.0904 30.7448 91.1999 30.679L91.7475 30.2734C92.0376 30.0651 92.3662 29.8458 92.7221 29.6046C93.078 29.3634 93.4229 29.1441 93.7514 28.9358C94.0799 28.7275 94.299 28.574 94.4687 28.4644C94.7292 28.265 95.0498 28.1606 95.3776 28.1684C95.6412 28.1845 95.8901 28.2955 96.0784 28.4808C96.2735 28.6853 96.3932 28.9502 96.4179 29.2318C96.4558 29.5895 96.4127 29.9511 96.2919 30.2898C95.7444 31.2656 95.2517 32.2249 94.7425 33.1568C94.2332 34.0887 93.7679 35.0315 93.3408 35.9799C92.9203 36.924 92.5725 37.899 92.3005 38.8962C92.0189 39.946 91.8699 41.027 91.857 42.114C91.8051 42.146 91.7454 42.163 91.6845 42.163C91.6236 42.163 91.5639 42.146 91.512 42.114C91.3879 42.0415 91.2737 41.9531 91.1726 41.8509C91.028 41.7008 90.8979 41.5374 90.7838 41.363C90.5486 41.0987 90.403 40.7668 90.3677 40.4146Z" fill="#DFF7DA"/>
<path d="M97.2901 41.3307C97.0221 41.0985 96.8077 40.8137 96.6611 40.4951C96.5146 40.1764 96.4391 39.8312 96.4398 39.4821C96.3981 38.5513 96.5171 37.6203 96.7918 36.7277C97.117 35.6199 97.5486 34.5443 98.0808 33.5151C98.649 32.3994 99.312 31.3318 100.063 30.3235C100.785 29.3383 101.605 28.4245 102.511 27.5955C103.282 26.8621 104.174 26.2587 105.149 25.8101C105.95 25.4372 106.845 25.2964 107.727 25.4045C108.65 25.5712 109.47 26.0813 110.012 26.8265C110.409 27.2777 110.676 27.8227 110.787 28.4065C110.873 28.9467 110.862 29.4974 110.754 30.0339C110.64 30.6124 110.468 31.1786 110.24 31.7244C110.001 32.2985 109.774 32.8779 109.546 33.4624C109.326 34.0454 109.145 34.6418 109.005 35.2478C108.864 35.8543 108.836 36.4804 108.924 37.0964C109.032 37.8916 109.395 38.3603 110.007 38.5078C110.753 38.6497 111.524 38.6062 112.249 38.3814C113.205 38.116 114.128 37.7486 115 37.286C115.97 36.7593 116.864 36.2853 117.708 35.7797C118.553 35.2741 119.496 34.6527 120.59 33.9048C121.191 33.7784 121.532 33.8153 121.603 34.0102C121.673 34.205 121.559 34.5052 121.25 34.8897C120.832 35.3756 120.362 35.8169 119.848 36.2063C119.177 36.7298 118.467 37.2051 117.725 37.6283C116.907 38.1025 116.056 38.5213 115.179 38.8817C114.334 39.2426 113.446 39.5008 112.536 39.6507C111.731 39.7884 110.906 39.7777 110.104 39.6191C109.362 39.4735 108.695 39.0804 108.22 38.5078C108.001 38.2848 107.818 38.0309 107.678 37.7547C107.557 37.4945 107.371 37.2681 107.136 37.0964C106.817 37.3913 106.427 37.7705 105.977 38.2392C105.528 38.708 105.04 39.182 104.51 39.6507C103.977 40.1242 103.418 40.569 102.836 40.9831C102.28 41.3806 101.667 41.6965 101.016 41.9206C100.413 42.1289 99.7689 42.2044 99.1315 42.1418C98.446 42.0638 97.8025 41.7803 97.2901 41.3307ZM97.6475 40.2774C97.693 40.5647 97.8535 40.8229 98.0939 40.9955C98.3344 41.1682 98.6354 41.2414 98.9311 41.1991C99.776 41.0774 100.575 40.7494 101.255 40.2458C102.249 39.5506 103.157 38.7465 103.963 37.8495C104.928 36.8101 105.781 35.6771 106.508 34.4683C107.256 33.2357 107.835 31.9131 108.23 30.5342C108.624 29.213 108.729 27.8262 108.539 26.4631C108.259 26.2679 107.925 26.159 107.58 26.1506C107.235 26.1421 106.896 26.2345 106.606 26.4158C105.692 26.8798 104.86 27.4824 104.141 28.2011C103.198 29.1101 102.336 30.0949 101.563 31.1451C100.74 32.2438 99.9928 33.3944 99.3265 34.5895C98.7341 35.6349 98.2427 36.7316 97.8587 37.8653C97.5588 38.6309 97.4857 39.4629 97.6475 40.2669V40.2774Z" fill="#DFF7DA"/>
<path d="M130.306 41.347C129.542 40.8413 128.937 40.126 128.563 39.2856C128.196 38.4439 127.929 37.5608 127.769 36.6552H127.423C126.029 37.8332 124.539 38.8909 122.969 39.8171C121.977 40.4132 120.898 40.8481 119.772 41.1055C119.095 41.2882 118.375 41.2157 117.747 40.9015C117.512 40.7615 117.307 40.5745 117.146 40.3521C116.985 40.1296 116.87 39.8763 116.81 39.6077C116.674 38.9455 116.701 38.2598 116.889 37.6107C117.101 36.7951 117.432 36.0154 117.87 35.297C118.371 34.4803 118.979 33.7347 119.676 33.08C120.429 32.3696 121.291 31.786 122.228 31.3514C123.24 30.894 124.32 30.6092 125.425 30.5086C126.701 30.4018 127.986 30.5365 129.213 30.9058L129.56 30.5247L133.822 21.8711C134.05 21.8731 134.272 21.9487 134.454 22.0869C134.636 22.2251 134.77 22.4185 134.835 22.6387C134.946 23.1008 134.946 23.5831 134.835 24.0452C134.71 24.557 134.532 25.0537 134.302 25.5269C134.083 26.0046 133.918 26.3536 133.812 26.5629L133.449 27.2984C133.268 27.6634 133.055 28.0929 132.815 28.5921L132.037 30.1704C131.76 30.7072 131.504 31.244 131.259 31.754C131.014 32.264 130.801 32.6881 130.609 33.0638C130.418 33.4396 130.306 33.6758 130.263 33.7832C129.879 34.5586 129.696 35.419 129.73 36.2848C129.762 37.1705 129.81 38.0187 129.869 38.824C129.946 39.1864 130.132 39.5161 130.402 39.7688C130.654 40.0112 130.923 40.2355 131.206 40.4398L132.064 41.0303C132.343 41.2157 132.585 41.4524 132.778 41.7282C132.754 41.8522 132.688 41.9639 132.59 42.0434C132.493 42.1229 132.37 42.1653 132.245 42.163C131.973 42.171 131.703 42.1216 131.451 42.0181C131.186 41.9149 130.931 41.7873 130.689 41.6369L130.306 41.347ZM118.483 39.9245C118.568 40.2895 118.893 40.3968 119.452 40.2465C120.155 40.031 120.823 39.7127 121.434 39.3018C122.272 38.7673 123.079 38.1866 123.853 37.5624C124.662 36.9256 125.436 36.2446 126.171 35.5225C126.76 34.9454 127.295 34.3147 127.769 33.6382C128.158 33.0638 128.302 32.6344 128.132 32.3606C127.462 31.9952 126.709 31.8103 125.947 31.8238C125.131 31.8271 124.322 31.9724 123.555 32.2533C122.744 32.5524 121.977 32.9605 121.274 33.4665C120.569 33.9634 119.948 34.5726 119.436 35.2702C118.941 35.9319 118.578 36.6851 118.371 37.4873C118.182 38.2943 118.221 39.1384 118.483 39.9245Z" fill="#DFF7DA"/>
<path d="M135.668 41.8938C135.109 41.7239 134.615 41.3795 134.252 40.9073C133.932 40.4732 133.713 39.9675 133.613 39.4302C133.507 38.8699 133.491 38.2953 133.565 37.7297C133.635 37.1524 133.756 36.5831 133.927 36.0291C134.546 35.3387 135.245 34.5448 136.024 33.6473C136.805 32.748 137.628 31.8705 138.503 31.0038C139.369 30.1476 140.279 29.3415 141.229 28.5893C142.108 27.8833 143.079 27.3107 144.112 26.8888C144.231 26.8096 144.37 26.7676 144.511 26.7676C144.652 26.7676 144.79 26.8096 144.909 26.8888C145.128 27.0861 145.276 27.3552 145.329 27.6518C145.417 28.0445 145.454 28.4479 145.439 28.8509C145.429 29.2944 145.392 29.7367 145.329 30.1754C145.276 30.5703 145.194 30.9603 145.082 31.3418C145.02 31.5978 144.914 31.8399 144.768 32.0558C144.346 32.4985 143.857 32.8667 143.321 33.1459L140.936 34.4867C140.06 34.9772 139.19 35.4786 138.315 35.9964C137.553 36.4358 136.833 36.9505 136.166 37.5335C135.687 37.9146 135.337 38.4429 135.164 39.0432C135.059 39.5392 135.353 39.9971 136.04 40.4058C136.899 40.4873 137.764 40.4488 138.614 40.2914C139.62 40.1279 140.647 39.9153 141.696 39.6428C142.744 39.3702 143.761 39.0977 144.736 38.798C145.711 38.4982 146.513 38.2529 147.137 38.1057L147.515 38.46C146.904 39.2064 146.134 39.7943 145.266 40.1769C144.185 40.7128 143.058 41.1417 141.9 41.4578C140.747 41.7842 139.568 42.0013 138.378 42.1064C137.47 42.2254 136.548 42.1531 135.668 41.8938ZM143.122 29.5159C143.122 29.5159 142.943 29.5813 142.655 29.7884C142.367 29.9955 142.005 30.2626 141.607 30.6005C141.208 30.9384 140.721 31.3036 140.233 31.6906C139.746 32.0776 139.295 32.4646 138.891 32.8079C138.488 33.1513 138.147 33.4511 137.88 33.7018C137.612 33.9525 137.492 34.0724 137.534 34.0724C137.97 34.1279 138.414 34.0775 138.828 33.9253C139.399 33.7489 139.952 33.5153 140.48 33.2276C141.049 32.9284 141.597 32.5878 142.12 32.2084C142.574 31.8899 142.987 31.5146 143.352 31.091C143.606 30.8271 143.769 30.4847 143.819 30.1154C143.803 29.8483 143.578 29.6412 143.122 29.5159Z" fill="#DFF7DA"/>
<path d="M61.9972 18.0752C61.9828 17.9922 61.9828 17.9076 61.9972 17.8245C61.9843 17.7361 61.9843 17.6465 61.9972 17.5581C62.0481 17.391 62.133 17.1037 62.2632 16.6911L62.6819 15.38C62.8291 14.9256 62.9649 14.4921 63.095 14.0847C63.2252 13.6773 63.3157 13.3952 63.3666 13.2281C63.4176 13.0609 63.5025 12.7737 63.5817 12.4968C63.6655 12.2377 63.683 11.9641 63.6326 11.6977C63.3282 11.6711 63.021 11.6976 62.7272 11.776C62.3707 11.8596 62.0142 11.9275 61.669 11.9797C61.3452 12.0322 61.0139 12.0322 60.69 11.9797C60.5422 11.9529 60.4046 11.8905 60.2913 11.7988C60.178 11.707 60.093 11.5893 60.0449 11.4574C60.1256 11.2839 60.2457 11.1285 60.397 11.0014C60.5483 10.8744 60.7273 10.7788 60.922 10.721C61.3359 10.6071 61.7602 10.5284 62.1896 10.4859C62.6297 10.4444 63.0664 10.3763 63.4968 10.2822C63.898 10.2029 64.2518 9.98647 64.4871 9.67631C64.6342 9.28457 64.8097 8.80926 65.0134 8.24516L65.6585 6.47448C65.8848 5.85814 66.1338 5.25225 66.4054 4.65158C66.6468 4.10008 66.9286 3.56432 67.2486 3.04804C67.3102 3.0018 67.3871 2.97656 67.4664 2.97656C67.5458 2.97656 67.6228 3.0018 67.6843 3.04804C67.8084 3.15532 67.8967 3.29303 67.939 3.44501C67.9964 3.61499 68.0343 3.79007 68.0522 3.96734C68.0703 4.0869 68.0703 4.20819 68.0522 4.32775C67.9388 4.76091 67.7697 5.17998 67.5485 5.57607C67.3165 6.02004 67.0958 6.46924 66.8921 6.91844C66.6919 7.35697 66.5292 7.8093 66.4054 8.27127C66.2868 8.69257 66.2868 9.13485 66.4054 9.55616H71.6172C71.6172 9.55616 71.6738 9.60318 71.7417 9.70242C71.7916 9.78472 71.8484 9.86331 71.9115 9.93747C71.9907 10.1464 71.9114 10.2927 71.6398 10.3658C71.299 10.4554 70.9472 10.5045 70.593 10.512C70.1516 10.512 69.6536 10.5486 69.0877 10.559C68.55 10.5627 68.0131 10.5993 67.4806 10.6687C67.0067 10.7276 66.5427 10.8417 66.0999 11.0082C65.9172 11.07 65.7496 11.1646 65.6069 11.2865C65.4641 11.4084 65.3489 11.5553 65.268 11.7186C64.8493 12.7284 64.4588 13.7382 64.0967 14.748C63.7401 15.7613 63.4006 16.7903 63.0724 17.8245C63.0131 17.8995 62.9488 17.971 62.88 18.0387C62.7848 18.1349 62.6764 18.2192 62.5574 18.2894C62.4629 18.3533 62.3454 18.3813 62.2292 18.3677C62.133 18.3311 62.0481 18.2424 61.9972 18.0752Z" fill="#DFF7DA"/>
<path d="M80.1323 0.87793V1.63348C80.0244 1.80321 79.8786 2.02768 79.6897 2.3069C79.5008 2.58613 79.3173 2.85442 79.123 3.17744C78.9287 3.50047 78.7398 3.77968 78.5508 4.06438C78.3619 4.34908 78.227 4.56809 78.1298 4.72687C78.0327 4.88564 77.7682 5.27437 77.4551 5.78902L76.408 7.43153C76.0194 8.04473 75.6253 8.68532 75.2205 9.35874C74.8157 10.0322 74.4541 10.6508 74.141 11.2367C73.8279 11.8225 73.5581 12.3317 73.3637 12.7368C73.1694 13.142 73.0939 13.4157 73.1424 13.5252C73.5698 13.3876 73.9739 13.1845 74.3407 12.923C74.7671 12.6328 75.1989 12.3207 75.6307 11.9922C76.0625 11.6637 76.5051 11.3407 76.937 11.0341C77.3192 10.7591 77.7236 10.5173 78.146 10.3114C78.5071 10.3552 78.8481 10.5034 79.1284 10.7384C79.4066 10.9764 79.6156 11.2869 79.7329 11.6363C79.7329 11.7787 79.7329 12.0415 79.6951 12.4302C79.6573 12.8189 79.6951 13.2186 79.6951 13.6457C79.6951 14.0727 79.6951 14.4724 79.6951 14.8502C79.6951 15.2279 79.6951 15.4853 79.7329 15.6276C79.7677 15.858 79.8466 16.0794 79.965 16.2791C80.1053 16.5365 80.2565 16.8267 80.4184 17.0566C80.5804 17.2866 80.7315 17.5439 80.861 17.73C80.9906 17.9162 81.05 18.0202 81.0338 18.0366C80.7481 18.1435 80.4342 18.1435 80.1485 18.0366C79.8698 17.9348 79.6197 17.7657 79.4198 17.5439C79.1975 17.3158 79.015 17.0511 78.8801 16.7609C78.7514 16.4902 78.6675 16.1998 78.6318 15.9014C78.6318 15.759 78.594 15.4962 78.5616 15.1075C78.5293 14.7188 78.5077 14.3191 78.4807 13.892C78.4537 13.465 78.4375 13.0653 78.4105 12.6875C78.3835 12.3098 78.3781 12.0524 78.3781 11.9101L77.8383 11.6254C77.7412 11.5761 77.5847 11.6254 77.358 11.7458C77.0874 11.9009 76.8277 12.0747 76.5807 12.266C76.2839 12.485 75.9708 12.7368 75.6469 13.0215L74.7293 13.8209C74.4379 14.0727 74.1896 14.2972 73.9952 14.4834C73.8009 14.6695 73.666 14.7899 73.6228 14.8392L72.9481 15.5127C72.6189 15.8357 72.2734 16.1806 71.9118 16.5529C71.5501 16.9252 71.2047 17.2701 70.8862 17.6041C70.5678 17.9381 70.3465 18.1516 70.2223 18.3104C70.0205 18.3565 69.8138 18.3767 69.607 18.3706C69.5064 18.3624 69.41 18.3257 69.3289 18.2647C69.2478 18.2038 69.1852 18.1209 69.1482 18.0257C69.1381 17.9825 69.1381 17.9375 69.1482 17.8943C69.1386 17.8529 69.1386 17.8098 69.1482 17.7684C69.213 17.6424 69.3155 17.4234 69.4667 17.1168L69.9309 16.1477C70.0928 15.8083 70.2547 15.4907 70.4059 15.1896C70.557 14.8885 70.6703 14.6805 70.7351 14.5545C70.7999 14.4286 70.8485 14.3738 70.978 14.1548C71.1075 13.9358 71.2749 13.6621 71.4692 13.3391C71.6635 13.016 71.8686 12.6547 72.0953 12.2441L72.77 11.0834L73.4015 10.0212C73.5958 9.6927 73.7524 9.41347 73.8765 9.19447C74.1896 8.64697 74.5512 8.06114 74.956 7.34939C75.3609 6.63764 75.7873 5.92589 76.2245 5.20319C76.6617 4.48049 77.0881 3.77969 77.5145 3.10079C77.8733 2.51892 78.2662 1.95946 78.6912 1.42543" fill="#DFF7DA"/>
<path d="M82.6716 18.2285C82.2447 18.1074 81.8659 17.8548 81.588 17.5057C81.3458 17.1832 81.1807 16.8083 81.1058 16.4106C81.0295 16.0025 81.0186 15.5846 81.0733 15.173C81.1258 14.7512 81.2165 14.3351 81.3442 13.93C81.8101 13.4263 82.3356 12.8477 82.9208 12.1942C83.5059 11.5426 84.1236 10.8965 84.7791 10.2668C85.4267 9.64241 86.1086 9.05555 86.8217 8.50903C87.483 7.99423 88.2125 7.57584 88.9889 7.26605C89.0773 7.20717 89.1809 7.17578 89.2869 7.17578C89.3928 7.17578 89.4964 7.20717 89.5848 7.26605C89.7496 7.40678 89.8623 7.59981 89.9045 7.81363C89.9676 8.1011 89.9949 8.39541 89.9858 8.68973C89.9753 9.01401 89.9482 9.33752 89.9045 9.65895C89.8633 9.94643 89.7999 10.2302 89.7149 10.5077C89.6673 10.6933 89.5885 10.8692 89.4819 11.0279C89.1663 11.3465 88.8 11.6093 88.3983 11.8054C87.8565 12.1066 87.266 12.4297 86.6104 12.7856C85.9548 13.1415 85.3047 13.5084 84.6491 13.8807C84.0732 14.1913 83.5289 14.5581 83.0237 14.9759C82.6682 15.2537 82.4069 15.6365 82.276 16.071C82.2002 16.4379 82.4169 16.7665 82.9316 17.0676C83.5756 17.1243 84.2241 17.0949 84.8604 16.98C85.6135 16.865 86.3883 16.7063 87.1739 16.5091C87.9595 16.312 88.718 16.1094 89.4548 15.8958C90.1916 15.6823 90.7876 15.5125 91.2536 15.3866L91.5353 15.6494C91.0761 16.191 90.4995 16.6182 89.8503 16.8979C89.039 17.2877 88.1938 17.6011 87.3256 17.8342C86.4614 18.069 85.5785 18.2266 84.687 18.3052C84.0168 18.4149 83.3317 18.3888 82.6716 18.2285ZM88.2575 9.20446C88.2575 9.20446 88.1274 9.25374 87.9107 9.40706C87.694 9.56038 87.4231 9.75203 87.1034 9.99297L86.074 10.7979C85.7056 11.0881 85.3751 11.3455 85.0663 11.6138C84.7575 11.8821 84.5245 12.0847 84.3078 12.2654C84.0911 12.4461 84.0206 12.5337 84.0531 12.5337C84.38 12.574 84.7117 12.5384 85.0229 12.4297C85.4487 12.2969 85.8621 12.1265 86.2582 11.9204C86.6865 11.7044 87.0976 11.4554 87.4881 11.1757C87.8291 10.9457 88.1388 10.6714 88.4091 10.3598C88.6005 10.1701 88.7243 9.92177 88.7613 9.65347C88.7722 9.45087 88.6042 9.29754 88.2575 9.20446Z" fill="#DFF7DA"/>
</svg>
